<svg width="35" height="35" viewBox="0 0 35 35" fill="none" xmlns="http://www.w3.org/2000/svg">
<path d="M34.9802 27.6136C34.8967 27.0976 34.5732 26.6566 34.0887 26.3946L26.9212 22.1716L26.8622 22.1386C26.5727 21.9901 26.2377 21.9136 25.8937 21.9136C25.2932 21.9136 24.7197 22.1411 24.3217 22.5401L22.2061 24.6566C22.1156 24.7426 21.8206 24.8671 21.7311 24.8716C21.7066 24.8696 19.2696 24.6941 14.7831 20.2071C10.3046 15.7295 10.1146 13.285 10.1131 13.285C10.1156 13.16 10.2386 12.866 10.3261 12.775L12.1301 10.9715C12.7656 10.3345 12.9561 9.27853 12.5791 8.46052L8.59511 0.964003C8.30561 0.368001 7.74311 0 7.11911 0C6.6776 0 6.2516 0.183001 5.9186 0.515502L1.00109 5.42202C0.529585 5.89102 0.123584 6.71102 0.0350833 7.37102C-0.00791683 7.68652 -0.880419 15.2175 9.44461 25.5441C18.2101 34.3086 25.0452 34.9896 26.9327 34.9896C27.3387 34.9896 27.5752 34.9606 27.6207 34.9541C28.2787 34.8661 29.0977 34.4611 29.5662 33.9916L34.4797 29.0786C34.8807 28.6756 35.0637 28.1431 34.9802 27.6136Z" fill="#2d2e32"/>
</svg>
