<svg width="27" height="27" viewBox="0 0 27 27" fill="none" xmlns="http://www.w3.org/2000/svg">
<path fill-rule="evenodd" clip-rule="evenodd" d="M13.764 0C6.61753 0 0.823532 5.98787 0.823532 13.3741C0.823532 19.0243 4.21337 23.8551 9.00699 25.8123C9.44589 25.9916 9.99429 26.2468 10.3475 25.9306C10.4951 25.7984 10.557 25.6014 10.557 25.4191C10.557 24.2507 9.42003 23.4682 8.28448 23.1927C6.93381 22.8651 6.3969 21.8807 6.23679 21.5021C6.19473 21.4027 6.16188 21.3006 6.12081 21.2008C5.87998 20.6154 5.60381 20.206 5.36229 19.927C5.00516 19.5144 4.08455 19.3069 4.25056 18.787C4.28146 18.6903 4.40675 18.6393 4.53322 18.6125C4.72973 18.5709 4.93482 18.5831 5.13086 18.6269C6.0509 18.8325 6.60639 19.6205 6.76655 19.8784C6.80021 19.9326 6.83101 19.9899 6.86366 20.0447C7.85681 21.7121 9.34756 21.522 10.2099 21.2225C10.4459 21.1405 10.613 20.8287 10.676 20.587C10.8341 19.98 10.4298 19.1556 9.82319 18.996C7.52108 18.3903 5.50857 16.8572 5.50857 12.6746C5.50857 12.0034 5.61504 11.3884 5.81045 10.829C6.22297 9.64816 6.59963 8.88891 6.5802 7.63819C6.56468 6.63897 7.57311 5.43408 8.50552 5.79366C8.61088 5.8343 8.72195 5.88058 8.83882 5.93324C9.96634 6.44133 11.214 6.67887 12.4432 6.54267C12.8817 6.49408 13.3244 6.46905 13.766 6.46726C14.2074 6.46919 14.6501 6.49429 15.0888 6.54293C16.318 6.67922 17.5655 6.44107 18.693 5.93279C18.8099 5.88006 18.9211 5.83373 19.0265 5.79307C19.9571 5.43416 20.9643 6.63711 20.9501 7.63439C20.9322 8.88694 21.3098 9.64915 21.7209 10.8325C21.9149 11.3909 22.0202 12.0047 22.0202 12.6746C22.0202 16.2231 20.5763 17.8602 18.733 18.6421C17.7701 19.0505 16.99 20.7054 16.99 21.7514C16.99 23.5383 16.9745 24.9802 16.9745 25.4188C16.9745 25.7771 17.2071 26.1938 17.8641 26.0611C23.0014 24.2899 26.7059 19.2811 26.7059 13.3741C26.7059 5.98787 20.9119 0 13.764 0Z" fill="#181616"/>
</svg>
