<svg width="233" height="69" viewBox="0 0 233 69" fill="none" xmlns="http://www.w3.org/2000/svg">
<g filter="url(#filter0_d_82_118)">
<ellipse cx="35" cy="30.5" rx="31" ry="30.5" fill="white"/>
</g>
<path d="M18 18V22.375L35.5 31.125L53 22.375V18H18ZM18 26.75V44.25H53V26.75L35.5 35.5L18 26.75Z" fill="black"/>
<path d="M86.0059 41.8008C86.0059 41.8398 85.9941 41.875 85.9707 41.9062C85.9473 41.9336 85.9082 41.957 85.8535 41.9766C85.7988 41.9961 85.7246 42.0098 85.6309 42.0176C85.5371 42.0293 85.418 42.0352 85.2734 42.0352C85.125 42.0352 85.0039 42.0293 84.9102 42.0176C84.8164 42.0098 84.7402 41.9961 84.6816 41.9766C84.627 41.957 84.5879 41.9336 84.5645 41.9062C84.5449 41.875 84.5352 41.8398 84.5352 41.8008V38.7012C84.5352 38.5254 84.5176 38.3652 84.4824 38.2207C84.4512 38.0762 84.4004 37.9531 84.3301 37.8516C84.2637 37.7461 84.1777 37.666 84.0723 37.6113C83.9707 37.5527 83.8477 37.5234 83.7031 37.5234C83.5273 37.5234 83.3496 37.5918 83.1699 37.7285C82.9902 37.8652 82.7949 38.0645 82.584 38.3262V41.8008C82.584 41.8398 82.5723 41.875 82.5488 41.9062C82.5254 41.9336 82.4844 41.957 82.4258 41.9766C82.3711 41.9961 82.2969 42.0098 82.2031 42.0176C82.1094 42.0293 81.9922 42.0352 81.8516 42.0352C81.707 42.0352 81.5879 42.0293 81.4941 42.0176C81.4004 42.0098 81.3242 41.9961 81.2656 41.9766C81.2109 41.957 81.1719 41.9336 81.1484 41.9062C81.125 41.875 81.1133 41.8398 81.1133 41.8008V38.7012C81.1133 38.5254 81.0957 38.3652 81.0605 38.2207C81.0293 38.0762 80.9805 37.9531 80.9141 37.8516C80.8477 37.7461 80.7617 37.666 80.6562 37.6113C80.5508 37.5527 80.4277 37.5234 80.2871 37.5234C80.1074 37.5234 79.9277 37.5918 79.748 37.7285C79.5684 37.8652 79.375 38.0645 79.168 38.3262V41.8008C79.168 41.8398 79.1562 41.875 79.1328 41.9062C79.1094 41.9336 79.0684 41.957 79.0098 41.9766C78.9551 41.9961 78.8809 42.0098 78.7871 42.0176C78.6934 42.0293 78.5742 42.0352 78.4297 42.0352C78.2852 42.0352 78.166 42.0293 78.0723 42.0176C77.9785 42.0098 77.9023 41.9961 77.8438 41.9766C77.7891 41.957 77.75 41.9336 77.7266 41.9062C77.7031 41.875 77.6914 41.8398 77.6914 41.8008V36.5742C77.6914 36.5352 77.7012 36.502 77.7207 36.4746C77.7402 36.4434 77.7754 36.418 77.8262 36.3984C77.877 36.3789 77.9414 36.3652 78.0195 36.3574C78.1016 36.3457 78.2031 36.3398 78.3242 36.3398C78.4492 36.3398 78.5527 36.3457 78.6348 36.3574C78.7168 36.3652 78.7793 36.3789 78.8223 36.3984C78.8691 36.418 78.9023 36.4434 78.9219 36.4746C78.9414 36.502 78.9512 36.5352 78.9512 36.5742V37.1777C79.2402 36.8652 79.5273 36.6309 79.8125 36.4746C80.1016 36.3184 80.4023 36.2402 80.7148 36.2402C80.9297 36.2402 81.123 36.2637 81.2949 36.3105C81.4668 36.3535 81.6191 36.418 81.752 36.5039C81.8887 36.5859 82.0059 36.6855 82.1035 36.8027C82.2012 36.9199 82.2832 37.0508 82.3496 37.1953C82.5059 37.0273 82.6582 36.8828 82.8066 36.7617C82.959 36.6406 83.1074 36.543 83.252 36.4688C83.4004 36.3906 83.5469 36.334 83.6914 36.2988C83.8398 36.2598 83.9902 36.2402 84.1426 36.2402C84.4902 36.2402 84.7832 36.2988 85.0215 36.416C85.2598 36.5332 85.4512 36.6934 85.5957 36.8965C85.7441 37.0957 85.8496 37.3301 85.9121 37.5996C85.9746 37.8691 86.0059 38.1543 86.0059 38.4551V41.8008ZM92.4453 41.8008C92.4453 41.8398 92.4336 41.875 92.4102 41.9062C92.3867 41.9336 92.3477 41.957 92.293 41.9766C92.2383 41.9961 92.1621 42.0098 92.0645 42.0176C91.9707 42.0293 91.8535 42.0352 91.7129 42.0352C91.5684 42.0352 91.4473 42.0293 91.3496 42.0176C91.2559 42.0098 91.1816 41.9961 91.127 41.9766C91.0723 41.957 91.0332 41.9336 91.0098 41.9062C90.9863 41.875 90.9746 41.8398 90.9746 41.8008V38.8184C90.9746 38.5645 90.9551 38.3652 90.916 38.2207C90.8809 38.0762 90.8281 37.9531 90.7578 37.8516C90.6875 37.7461 90.5957 37.666 90.4824 37.6113C90.373 37.5527 90.2441 37.5234 90.0957 37.5234C89.9082 37.5234 89.7188 37.5918 89.5273 37.7285C89.3359 37.8652 89.1367 38.0645 88.9297 38.3262V41.8008C88.9297 41.8398 88.918 41.875 88.8945 41.9062C88.8711 41.9336 88.8301 41.957 88.7715 41.9766C88.7168 41.9961 88.6426 42.0098 88.5488 42.0176C88.4551 42.0293 88.3359 42.0352 88.1914 42.0352C88.0469 42.0352 87.9277 42.0293 87.834 42.0176C87.7402 42.0098 87.6641 41.9961 87.6055 41.9766C87.5508 41.957 87.5117 41.9336 87.4883 41.9062C87.4648 41.875 87.4531 41.8398 87.4531 41.8008V34.0957C87.4531 34.0566 87.4648 34.0215 87.4883 33.9902C87.5117 33.959 87.5508 33.9336 87.6055 33.9141C87.6641 33.8906 87.7402 33.873 87.834 33.8613C87.9277 33.8496 88.0469 33.8438 88.1914 33.8438C88.3359 33.8438 88.4551 33.8496 88.5488 33.8613C88.6426 33.873 88.7168 33.8906 88.7715 33.9141C88.8301 33.9336 88.8711 33.959 88.8945 33.9902C88.918 34.0215 88.9297 34.0566 88.9297 34.0957V36.9844C89.1836 36.7344 89.4414 36.5488 89.7031 36.4277C89.9688 36.3027 90.2441 36.2402 90.5293 36.2402C90.8848 36.2402 91.1836 36.2988 91.4258 36.416C91.6719 36.5332 91.8691 36.6934 92.0176 36.8965C92.1699 37.0996 92.2793 37.3379 92.3457 37.6113C92.4121 37.8809 92.4453 38.209 92.4453 38.5957V41.8008ZM98.7266 39.0352C98.7266 39.2148 98.6855 39.3477 98.6035 39.4336C98.5254 39.5195 98.416 39.5625 98.2754 39.5625H95.0938C95.0938 39.7852 95.1191 39.9883 95.1699 40.1719C95.2246 40.3516 95.3086 40.5059 95.4219 40.6348C95.5391 40.7598 95.6875 40.8555 95.8672 40.9219C96.0508 40.9883 96.2695 41.0215 96.5234 41.0215C96.7812 41.0215 97.0078 41.0039 97.2031 40.9688C97.3984 40.9297 97.5664 40.8887 97.707 40.8457C97.8516 40.7988 97.9707 40.7578 98.0645 40.7227C98.1582 40.6836 98.2344 40.6641 98.293 40.6641C98.3281 40.6641 98.3574 40.6719 98.3809 40.6875C98.4043 40.6992 98.4238 40.7227 98.4395 40.7578C98.4551 40.793 98.4648 40.8438 98.4688 40.9102C98.4766 40.9727 98.4805 41.0527 98.4805 41.1504C98.4805 41.2363 98.4785 41.3105 98.4746 41.373C98.4707 41.4316 98.4648 41.4824 98.457 41.5254C98.4492 41.5684 98.4375 41.6055 98.4219 41.6367C98.4062 41.6641 98.3848 41.6914 98.3574 41.7188C98.334 41.7461 98.2656 41.7832 98.1523 41.8301C98.0391 41.877 97.8945 41.9238 97.7188 41.9707C97.543 42.0137 97.3418 42.0508 97.1152 42.082C96.8887 42.1172 96.6465 42.1348 96.3887 42.1348C95.9238 42.1348 95.5156 42.0762 95.1641 41.959C94.8164 41.8418 94.5254 41.6641 94.291 41.4258C94.0566 41.1875 93.8809 40.8867 93.7637 40.5234C93.6504 40.1602 93.5938 39.7344 93.5938 39.2461C93.5938 38.7812 93.6543 38.3633 93.7754 37.9922C93.8965 37.6172 94.0723 37.3008 94.3027 37.043C94.5332 36.7812 94.8125 36.582 95.1406 36.4453C95.4727 36.3086 95.8457 36.2402 96.2598 36.2402C96.6973 36.2402 97.0703 36.3047 97.3789 36.4336C97.6914 36.5625 97.9473 36.7422 98.1465 36.9727C98.3457 37.1992 98.4922 37.4688 98.5859 37.7812C98.6797 38.0938 98.7266 38.4336 98.7266 38.8008V39.0352ZM97.2969 38.6133C97.3086 38.1992 97.2246 37.875 97.0449 37.6406C96.8691 37.4023 96.5957 37.2832 96.2246 37.2832C96.0371 37.2832 95.873 37.3184 95.7324 37.3887C95.5957 37.459 95.4805 37.5547 95.3867 37.6758C95.2969 37.793 95.2266 37.9336 95.1758 38.0977C95.1289 38.2578 95.1016 38.4297 95.0938 38.6133H97.2969ZM101.422 41.8008C101.422 41.8398 101.41 41.875 101.387 41.9062C101.363 41.9336 101.322 41.957 101.264 41.9766C101.209 41.9961 101.135 42.0098 101.041 42.0176C100.947 42.0293 100.828 42.0352 100.684 42.0352C100.539 42.0352 100.42 42.0293 100.326 42.0176C100.232 42.0098 100.156 41.9961 100.098 41.9766C100.043 41.957 100.004 41.9336 99.9805 41.9062C99.957 41.875 99.9453 41.8398 99.9453 41.8008V36.5859C99.9453 36.5469 99.957 36.5137 99.9805 36.4863C100.004 36.4551 100.043 36.4297 100.098 36.4102C100.156 36.3867 100.232 36.3691 100.326 36.3574C100.42 36.3457 100.539 36.3398 100.684 36.3398C100.828 36.3398 100.947 36.3457 101.041 36.3574C101.135 36.3691 101.209 36.3867 101.264 36.4102C101.322 36.4297 101.363 36.4551 101.387 36.4863C101.41 36.5137 101.422 36.5469 101.422 36.5859V41.8008ZM101.533 34.8047C101.533 35.1016 101.473 35.3066 101.352 35.4199C101.23 35.5332 101.006 35.5898 100.678 35.5898C100.346 35.5898 100.121 35.5352 100.004 35.4258C99.8906 35.3164 99.834 35.1191 99.834 34.834C99.834 34.5371 99.8926 34.332 100.01 34.2188C100.131 34.1016 100.357 34.043 100.689 34.043C101.018 34.043 101.24 34.0996 101.357 34.2129C101.475 34.3223 101.533 34.5195 101.533 34.8047ZM107.891 41.8008C107.891 41.8398 107.879 41.875 107.855 41.9062C107.832 41.9336 107.793 41.957 107.738 41.9766C107.684 41.9961 107.607 42.0098 107.51 42.0176C107.416 42.0293 107.299 42.0352 107.158 42.0352C107.014 42.0352 106.893 42.0293 106.795 42.0176C106.701 42.0098 106.627 41.9961 106.572 41.9766C106.518 41.957 106.479 41.9336 106.455 41.9062C106.432 41.875 106.42 41.8398 106.42 41.8008V38.8184C106.42 38.5645 106.4 38.3652 106.361 38.2207C106.326 38.0762 106.273 37.9531 106.203 37.8516C106.133 37.7461 106.041 37.666 105.928 37.6113C105.818 37.5527 105.689 37.5234 105.541 37.5234C105.354 37.5234 105.164 37.5918 104.973 37.7285C104.781 37.8652 104.582 38.0645 104.375 38.3262V41.8008C104.375 41.8398 104.363 41.875 104.34 41.9062C104.316 41.9336 104.275 41.957 104.217 41.9766C104.162 41.9961 104.088 42.0098 103.994 42.0176C103.9 42.0293 103.781 42.0352 103.637 42.0352C103.492 42.0352 103.373 42.0293 103.279 42.0176C103.186 42.0098 103.109 41.9961 103.051 41.9766C102.996 41.957 102.957 41.9336 102.934 41.9062C102.91 41.875 102.898 41.8398 102.898 41.8008V36.5742C102.898 36.5352 102.908 36.502 102.928 36.4746C102.947 36.4434 102.982 36.418 103.033 36.3984C103.084 36.3789 103.148 36.3652 103.227 36.3574C103.309 36.3457 103.41 36.3398 103.531 36.3398C103.656 36.3398 103.76 36.3457 103.842 36.3574C103.924 36.3652 103.986 36.3789 104.029 36.3984C104.076 36.418 104.109 36.4434 104.129 36.4746C104.148 36.502 104.158 36.5352 104.158 36.5742V37.1777C104.447 36.8652 104.74 36.6309 105.037 36.4746C105.338 36.3184 105.65 36.2402 105.975 36.2402C106.33 36.2402 106.629 36.2988 106.871 36.416C107.117 36.5332 107.314 36.6934 107.463 36.8965C107.615 37.0957 107.725 37.3301 107.791 37.5996C107.857 37.8691 107.891 38.1934 107.891 38.5723V41.8008ZM113 41.3965C113 41.5098 112.994 41.6074 112.982 41.6895C112.971 41.7676 112.955 41.8301 112.936 41.877C112.916 41.9238 112.891 41.957 112.859 41.9766C112.828 41.9922 112.793 42 112.754 42H109.338C109.232 42 109.15 41.9648 109.092 41.8945C109.037 41.8242 109.01 41.709 109.01 41.5488V41.2793C109.01 41.209 109.012 41.1465 109.016 41.0918C109.023 41.0332 109.035 40.9785 109.051 40.9277C109.07 40.873 109.094 40.8184 109.121 40.7637C109.152 40.709 109.191 40.6484 109.238 40.582L111.195 37.5586H109.344C109.27 37.5586 109.209 37.5117 109.162 37.418C109.119 37.3242 109.098 37.1738 109.098 36.9668C109.098 36.8535 109.102 36.7598 109.109 36.6855C109.121 36.6074 109.137 36.5469 109.156 36.5039C109.176 36.457 109.201 36.4238 109.232 36.4043C109.264 36.3848 109.301 36.375 109.344 36.375H112.537C112.592 36.375 112.639 36.3809 112.678 36.3926C112.717 36.4043 112.748 36.4258 112.771 36.457C112.799 36.4883 112.818 36.5312 112.83 36.5859C112.846 36.6406 112.854 36.709 112.854 36.791V37.0781C112.854 37.1562 112.85 37.2266 112.842 37.2891C112.834 37.3477 112.822 37.4043 112.807 37.459C112.791 37.5137 112.768 37.5684 112.736 37.623C112.709 37.6777 112.676 37.7363 112.637 37.7988L110.691 40.8164H112.754C112.789 40.8164 112.822 40.8242 112.854 40.8398C112.885 40.8555 112.91 40.8848 112.93 40.9277C112.953 40.9707 112.971 41.0312 112.982 41.1094C112.994 41.1836 113 41.2793 113 41.3965ZM122.428 41.8008C122.428 41.8398 122.416 41.875 122.393 41.9062C122.369 41.9336 122.33 41.957 122.275 41.9766C122.221 41.9961 122.146 42.0098 122.053 42.0176C121.959 42.0293 121.84 42.0352 121.695 42.0352C121.547 42.0352 121.426 42.0293 121.332 42.0176C121.238 42.0098 121.162 41.9961 121.104 41.9766C121.049 41.957 121.01 41.9336 120.986 41.9062C120.967 41.875 120.957 41.8398 120.957 41.8008V38.7012C120.957 38.5254 120.939 38.3652 120.904 38.2207C120.873 38.0762 120.822 37.9531 120.752 37.8516C120.686 37.7461 120.6 37.666 120.494 37.6113C120.393 37.5527 120.27 37.5234 120.125 37.5234C119.949 37.5234 119.771 37.5918 119.592 37.7285C119.412 37.8652 119.217 38.0645 119.006 38.3262V41.8008C119.006 41.8398 118.994 41.875 118.971 41.9062C118.947 41.9336 118.906 41.957 118.848 41.9766C118.793 41.9961 118.719 42.0098 118.625 42.0176C118.531 42.0293 118.414 42.0352 118.273 42.0352C118.129 42.0352 118.01 42.0293 117.916 42.0176C117.822 42.0098 117.746 41.9961 117.688 41.9766C117.633 41.957 117.594 41.9336 117.57 41.9062C117.547 41.875 117.535 41.8398 117.535 41.8008V38.7012C117.535 38.5254 117.518 38.3652 117.482 38.2207C117.451 38.0762 117.402 37.9531 117.336 37.8516C117.27 37.7461 117.184 37.666 117.078 37.6113C116.973 37.5527 116.85 37.5234 116.709 37.5234C116.529 37.5234 116.35 37.5918 116.17 37.7285C115.99 37.8652 115.797 38.0645 115.59 38.3262V41.8008C115.59 41.8398 115.578 41.875 115.555 41.9062C115.531 41.9336 115.49 41.957 115.432 41.9766C115.377 41.9961 115.303 42.0098 115.209 42.0176C115.115 42.0293 114.996 42.0352 114.852 42.0352C114.707 42.0352 114.588 42.0293 114.494 42.0176C114.4 42.0098 114.324 41.9961 114.266 41.9766C114.211 41.957 114.172 41.9336 114.148 41.9062C114.125 41.875 114.113 41.8398 114.113 41.8008V36.5742C114.113 36.5352 114.123 36.502 114.143 36.4746C114.162 36.4434 114.197 36.418 114.248 36.3984C114.299 36.3789 114.363 36.3652 114.441 36.3574C114.523 36.3457 114.625 36.3398 114.746 36.3398C114.871 36.3398 114.975 36.3457 115.057 36.3574C115.139 36.3652 115.201 36.3789 115.244 36.3984C115.291 36.418 115.324 36.4434 115.344 36.4746C115.363 36.502 115.373 36.5352 115.373 36.5742V37.1777C115.662 36.8652 115.949 36.6309 116.234 36.4746C116.523 36.3184 116.824 36.2402 117.137 36.2402C117.352 36.2402 117.545 36.2637 117.717 36.3105C117.889 36.3535 118.041 36.418 118.174 36.5039C118.311 36.5859 118.428 36.6855 118.525 36.8027C118.623 36.9199 118.705 37.0508 118.771 37.1953C118.928 37.0273 119.08 36.8828 119.229 36.7617C119.381 36.6406 119.529 36.543 119.674 36.4688C119.822 36.3906 119.969 36.334 120.113 36.2988C120.262 36.2598 120.412 36.2402 120.564 36.2402C120.912 36.2402 121.205 36.2988 121.443 36.416C121.682 36.5332 121.873 36.6934 122.018 36.8965C122.166 37.0957 122.271 37.3301 122.334 37.5996C122.396 37.8691 122.428 38.1543 122.428 38.4551V41.8008ZM128.328 41.8184C128.328 41.873 128.309 41.916 128.27 41.9473C128.23 41.9785 128.168 42 128.082 42.0117C128 42.0273 127.877 42.0352 127.713 42.0352C127.537 42.0352 127.408 42.0273 127.326 42.0117C127.248 42 127.191 41.9785 127.156 41.9473C127.125 41.916 127.109 41.873 127.109 41.8184V41.4023C126.895 41.6328 126.648 41.8125 126.371 41.9414C126.098 42.0703 125.793 42.1348 125.457 42.1348C125.18 42.1348 124.924 42.0977 124.689 42.0234C124.459 41.9531 124.258 41.8477 124.086 41.707C123.918 41.5625 123.787 41.3848 123.693 41.1738C123.6 40.9629 123.553 40.7168 123.553 40.4355C123.553 40.1309 123.611 39.8672 123.729 39.6445C123.85 39.418 124.027 39.2324 124.262 39.0879C124.5 38.9395 124.795 38.8301 125.146 38.7598C125.498 38.6895 125.906 38.6543 126.371 38.6543H126.881V38.3379C126.881 38.1738 126.863 38.0312 126.828 37.9102C126.797 37.7852 126.742 37.6816 126.664 37.5996C126.59 37.5176 126.488 37.457 126.359 37.418C126.234 37.3789 126.078 37.3594 125.891 37.3594C125.645 37.3594 125.424 37.3867 125.229 37.4414C125.037 37.4961 124.867 37.5566 124.719 37.623C124.57 37.6895 124.445 37.75 124.344 37.8047C124.246 37.8594 124.166 37.8867 124.104 37.8867C124.061 37.8867 124.021 37.873 123.986 37.8457C123.955 37.8184 123.928 37.7793 123.904 37.7285C123.885 37.6777 123.869 37.6152 123.857 37.541C123.846 37.4668 123.84 37.3848 123.84 37.2949C123.84 37.1738 123.85 37.0781 123.869 37.0078C123.889 36.9375 123.926 36.875 123.98 36.8203C124.035 36.7617 124.131 36.6992 124.268 36.6328C124.404 36.5625 124.564 36.498 124.748 36.4395C124.932 36.3809 125.131 36.334 125.346 36.2988C125.564 36.2598 125.789 36.2402 126.02 36.2402C126.43 36.2402 126.779 36.2812 127.068 36.3633C127.361 36.4414 127.602 36.5645 127.789 36.7324C127.977 36.8965 128.113 37.1094 128.199 37.3711C128.285 37.6328 128.328 37.9434 128.328 38.3027V41.8184ZM126.881 39.5801H126.318C126.08 39.5801 125.877 39.5977 125.709 39.6328C125.541 39.668 125.404 39.7207 125.299 39.791C125.193 39.8613 125.115 39.9473 125.064 40.0488C125.018 40.1465 124.994 40.2598 124.994 40.3887C124.994 40.6074 125.062 40.7793 125.199 40.9043C125.34 41.0293 125.533 41.0918 125.779 41.0918C125.986 41.0918 126.176 41.0391 126.348 40.9336C126.523 40.8281 126.701 40.6738 126.881 40.4707V39.5801ZM134.797 41.8008C134.797 41.8398 134.785 41.875 134.762 41.9062C134.738 41.9336 134.699 41.957 134.645 41.9766C134.59 41.9961 134.514 42.0098 134.416 42.0176C134.322 42.0293 134.205 42.0352 134.064 42.0352C133.92 42.0352 133.799 42.0293 133.701 42.0176C133.607 42.0098 133.533 41.9961 133.479 41.9766C133.424 41.957 133.385 41.9336 133.361 41.9062C133.338 41.875 133.326 41.8398 133.326 41.8008V38.8184C133.326 38.5645 133.307 38.3652 133.268 38.2207C133.232 38.0762 133.18 37.9531 133.109 37.8516C133.039 37.7461 132.947 37.666 132.834 37.6113C132.725 37.5527 132.596 37.5234 132.447 37.5234C132.26 37.5234 132.07 37.5918 131.879 37.7285C131.688 37.8652 131.488 38.0645 131.281 38.3262V41.8008C131.281 41.8398 131.27 41.875 131.246 41.9062C131.223 41.9336 131.182 41.957 131.123 41.9766C131.068 41.9961 130.994 42.0098 130.9 42.0176C130.807 42.0293 130.688 42.0352 130.543 42.0352C130.398 42.0352 130.279 42.0293 130.186 42.0176C130.092 42.0098 130.016 41.9961 129.957 41.9766C129.902 41.957 129.863 41.9336 129.84 41.9062C129.816 41.875 129.805 41.8398 129.805 41.8008V36.5742C129.805 36.5352 129.814 36.502 129.834 36.4746C129.854 36.4434 129.889 36.418 129.939 36.3984C129.99 36.3789 130.055 36.3652 130.133 36.3574C130.215 36.3457 130.316 36.3398 130.438 36.3398C130.562 36.3398 130.666 36.3457 130.748 36.3574C130.83 36.3652 130.893 36.3789 130.936 36.3984C130.982 36.418 131.016 36.4434 131.035 36.4746C131.055 36.502 131.064 36.5352 131.064 36.5742V37.1777C131.354 36.8652 131.646 36.6309 131.943 36.4746C132.244 36.3184 132.557 36.2402 132.881 36.2402C133.236 36.2402 133.535 36.2988 133.777 36.416C134.023 36.5332 134.221 36.6934 134.369 36.8965C134.521 37.0957 134.631 37.3301 134.697 37.5996C134.764 37.8691 134.797 38.1934 134.797 38.5723V41.8008ZM141.113 41.373C141.113 41.4863 141.107 41.584 141.096 41.666C141.088 41.7441 141.074 41.8086 141.055 41.8594C141.035 41.9102 141.01 41.9473 140.979 41.9707C140.947 41.9902 140.912 42 140.873 42H136.514C136.428 42 136.354 41.9922 136.291 41.9766C136.229 41.9609 136.178 41.9316 136.139 41.8887C136.1 41.8418 136.07 41.7754 136.051 41.6895C136.035 41.6035 136.027 41.4922 136.027 41.3555C136.027 41.2266 136.033 41.1172 136.045 41.0273C136.057 40.9336 136.078 40.8516 136.109 40.7812C136.141 40.707 136.18 40.6367 136.227 40.5703C136.277 40.5 136.342 40.4238 136.42 40.3418L137.732 38.9355C137.994 38.6621 138.205 38.4141 138.365 38.1914C138.525 37.9648 138.65 37.7598 138.74 37.5762C138.83 37.3887 138.891 37.2168 138.922 37.0605C138.957 36.9043 138.975 36.7559 138.975 36.6152C138.975 36.4863 138.953 36.3652 138.91 36.252C138.871 36.1348 138.811 36.0332 138.729 35.9473C138.65 35.8613 138.551 35.7949 138.43 35.748C138.309 35.6973 138.166 35.6719 138.002 35.6719C137.771 35.6719 137.566 35.7012 137.387 35.7598C137.211 35.8184 137.055 35.8848 136.918 35.959C136.785 36.0293 136.674 36.0957 136.584 36.1582C136.494 36.2168 136.424 36.2461 136.373 36.2461C136.338 36.2461 136.307 36.2344 136.279 36.2109C136.256 36.1875 136.236 36.1484 136.221 36.0938C136.205 36.0391 136.191 35.9668 136.18 35.877C136.172 35.7832 136.168 35.6699 136.168 35.5371C136.168 35.4473 136.17 35.373 136.174 35.3145C136.182 35.252 136.191 35.1992 136.203 35.1562C136.215 35.1094 136.23 35.0703 136.25 35.0391C136.27 35.0039 136.303 34.9629 136.35 34.916C136.4 34.8691 136.49 34.8105 136.619 34.7402C136.752 34.666 136.914 34.5957 137.105 34.5293C137.297 34.459 137.508 34.4004 137.738 34.3535C137.969 34.3066 138.209 34.2832 138.459 34.2832C138.854 34.2832 139.197 34.334 139.49 34.4355C139.787 34.5332 140.033 34.6719 140.229 34.8516C140.424 35.0273 140.568 35.2383 140.662 35.4844C140.76 35.7266 140.809 35.9883 140.809 36.2695C140.809 36.5156 140.785 36.7578 140.738 36.9961C140.691 37.2344 140.594 37.4922 140.445 37.7695C140.297 38.043 140.088 38.3477 139.818 38.6836C139.549 39.0156 139.191 39.4023 138.746 39.8438L137.861 40.752H140.85C140.889 40.752 140.924 40.7637 140.955 40.7871C140.99 40.8105 141.02 40.8477 141.043 40.8984C141.066 40.9453 141.084 41.0098 141.096 41.0918C141.107 41.1699 141.113 41.2637 141.113 41.373ZM147.348 38.1797C147.348 38.7852 147.299 39.332 147.201 39.8203C147.104 40.3086 146.943 40.7246 146.721 41.0684C146.502 41.4121 146.215 41.6758 145.859 41.8594C145.508 42.043 145.076 42.1348 144.564 42.1348C144.045 42.1348 143.615 42.0469 143.275 41.8711C142.936 41.6914 142.666 41.4355 142.467 41.1035C142.268 40.7676 142.127 40.3594 142.045 39.8789C141.967 39.3945 141.928 38.8477 141.928 38.2383C141.928 37.6367 141.977 37.0918 142.074 36.6035C142.176 36.1113 142.336 35.6934 142.555 35.3496C142.777 35.0059 143.064 34.7422 143.416 34.5586C143.771 34.375 144.203 34.2832 144.711 34.2832C145.23 34.2832 145.66 34.373 146 34.5527C146.344 34.7285 146.615 34.9844 146.814 35.3203C147.014 35.6523 147.152 36.0605 147.23 36.5449C147.309 37.0254 147.348 37.5703 147.348 38.1797ZM145.795 38.2559C145.795 37.8965 145.785 37.5801 145.766 37.3066C145.746 37.0293 145.715 36.7891 145.672 36.5859C145.633 36.3828 145.582 36.2109 145.52 36.0703C145.461 35.9297 145.389 35.8184 145.303 35.7363C145.217 35.6504 145.119 35.5898 145.01 35.5547C144.9 35.5195 144.779 35.502 144.646 35.502C144.416 35.502 144.225 35.5586 144.072 35.6719C143.924 35.7812 143.805 35.9473 143.715 36.1699C143.629 36.3926 143.568 36.6699 143.533 37.002C143.498 37.334 143.48 37.7207 143.48 38.1621C143.48 38.7012 143.502 39.1484 143.545 39.5039C143.588 39.8555 143.654 40.1367 143.744 40.3477C143.838 40.5547 143.957 40.7012 144.102 40.7871C144.246 40.8691 144.42 40.9102 144.623 40.9102C144.775 40.9102 144.91 40.8867 145.027 40.8398C145.145 40.7891 145.246 40.7148 145.332 40.6172C145.422 40.5195 145.496 40.3965 145.555 40.248C145.613 40.0996 145.66 39.9277 145.695 39.7324C145.734 39.5371 145.76 39.3164 145.771 39.0703C145.787 38.8242 145.795 38.5527 145.795 38.2559ZM153.207 41.4141C153.207 41.5234 153.201 41.6172 153.189 41.6953C153.178 41.7695 153.16 41.8301 153.137 41.877C153.117 41.9199 153.094 41.9512 153.066 41.9707C153.039 41.9902 153.008 42 152.973 42H148.789C148.758 42 148.729 41.9902 148.701 41.9707C148.674 41.9512 148.648 41.9199 148.625 41.877C148.605 41.8301 148.59 41.7695 148.578 41.6953C148.566 41.6172 148.561 41.5234 148.561 41.4141C148.561 41.3008 148.564 41.207 148.572 41.1328C148.584 41.0547 148.6 40.9922 148.619 40.9453C148.643 40.8984 148.668 40.8652 148.695 40.8457C148.723 40.8223 148.754 40.8105 148.789 40.8105H150.201V35.877L148.982 36.5508C148.893 36.5938 148.818 36.6211 148.76 36.6328C148.705 36.6406 148.66 36.6289 148.625 36.5977C148.594 36.5625 148.572 36.5039 148.561 36.4219C148.549 36.3398 148.543 36.2246 148.543 36.0762C148.543 35.9824 148.545 35.9062 148.549 35.8477C148.553 35.7852 148.562 35.7324 148.578 35.6895C148.594 35.6465 148.615 35.6113 148.643 35.584C148.67 35.5566 148.707 35.5273 148.754 35.4961L150.383 34.4414C150.402 34.4258 150.426 34.4141 150.453 34.4062C150.484 34.3945 150.523 34.3867 150.57 34.3828C150.617 34.375 150.678 34.3711 150.752 34.3711C150.83 34.3672 150.93 34.3652 151.051 34.3652C151.199 34.3652 151.318 34.3691 151.408 34.377C151.502 34.3809 151.572 34.3906 151.619 34.4062C151.666 34.418 151.697 34.4355 151.713 34.459C151.729 34.4824 151.736 34.5117 151.736 34.5469V40.8105H152.973C153.008 40.8105 153.039 40.8223 153.066 40.8457C153.098 40.8652 153.123 40.8984 153.143 40.9453C153.166 40.9922 153.182 41.0547 153.189 41.1328C153.201 41.207 153.207 41.3008 153.207 41.4141ZM159.354 35.0684C159.354 35.1816 159.35 35.2812 159.342 35.3672C159.334 35.4492 159.322 35.5273 159.307 35.6016C159.295 35.6719 159.277 35.7402 159.254 35.8066C159.23 35.8691 159.203 35.9375 159.172 36.0117L156.676 41.7949C156.652 41.8457 156.621 41.8867 156.582 41.918C156.547 41.9492 156.496 41.9746 156.43 41.9941C156.363 42.0098 156.277 42.0195 156.172 42.0234C156.07 42.0312 155.943 42.0352 155.791 42.0352C155.584 42.0352 155.42 42.0273 155.299 42.0117C155.178 42 155.088 41.9805 155.029 41.9531C154.975 41.9219 154.945 41.8848 154.941 41.8418C154.938 41.7949 154.951 41.7383 154.982 41.6719L157.666 35.7539H154.479C154.396 35.7539 154.334 35.7012 154.291 35.5957C154.252 35.4863 154.232 35.3145 154.232 35.0801C154.232 34.9629 154.238 34.8633 154.25 34.7812C154.262 34.6953 154.277 34.625 154.297 34.5703C154.32 34.5156 154.346 34.4766 154.373 34.4531C154.404 34.4297 154.439 34.418 154.479 34.418H158.984C159.055 34.418 159.113 34.4258 159.16 34.4414C159.207 34.4531 159.244 34.4824 159.271 34.5293C159.299 34.5762 159.318 34.6426 159.33 34.7285C159.346 34.8145 159.354 34.9277 159.354 35.0684ZM169.865 37.4941C169.865 37.7793 169.846 38.0684 169.807 38.3613C169.768 38.6504 169.703 38.9297 169.613 39.1992C169.527 39.4648 169.416 39.7148 169.279 39.9492C169.143 40.1836 168.977 40.3867 168.781 40.5586C168.59 40.7305 168.367 40.8672 168.113 40.9688C167.859 41.0664 167.572 41.1152 167.252 41.1152C167.061 41.1152 166.887 41.0977 166.73 41.0625C166.574 41.0234 166.438 40.9688 166.32 40.8984C166.203 40.8242 166.105 40.7344 166.027 40.6289C165.953 40.5195 165.896 40.3945 165.857 40.2539C165.705 40.4102 165.555 40.543 165.406 40.6523C165.262 40.7578 165.117 40.8457 164.973 40.916C164.832 40.9863 164.691 41.0371 164.551 41.0684C164.41 41.0996 164.268 41.1152 164.123 41.1152C163.939 41.1152 163.777 41.0938 163.637 41.0508C163.496 41.0039 163.373 40.9414 163.268 40.8633C163.166 40.7852 163.08 40.6953 163.01 40.5938C162.943 40.4883 162.889 40.373 162.846 40.248C162.803 40.123 162.771 39.9922 162.752 39.8555C162.736 39.7188 162.729 39.5801 162.729 39.4395C162.729 39.2559 162.742 39.0508 162.77 38.8242C162.801 38.5977 162.85 38.3672 162.916 38.1328C162.986 37.8945 163.078 37.666 163.191 37.4473C163.305 37.2246 163.445 37.0273 163.613 36.8555C163.781 36.6797 163.977 36.5391 164.199 36.4336C164.426 36.3281 164.686 36.2754 164.979 36.2754C165.111 36.2754 165.234 36.2891 165.348 36.3164C165.461 36.3438 165.57 36.3867 165.676 36.4453C165.781 36.5039 165.883 36.5801 165.98 36.6738C166.082 36.7676 166.188 36.8828 166.297 37.0195L166.396 36.5684C166.412 36.498 166.459 36.4453 166.537 36.4102C166.619 36.375 166.762 36.3574 166.965 36.3574C167.066 36.3574 167.15 36.3633 167.217 36.375C167.287 36.3828 167.342 36.3965 167.381 36.416C167.42 36.4316 167.445 36.4531 167.457 36.4805C167.469 36.5039 167.473 36.5332 167.469 36.5684L166.965 39.1875C166.91 39.4766 166.918 39.6895 166.988 39.8262C167.062 39.959 167.205 40.0254 167.416 40.0254C167.553 40.0254 167.678 39.9883 167.791 39.9141C167.904 39.8398 168.002 39.7402 168.084 39.6152C168.17 39.4863 168.242 39.3398 168.301 39.1758C168.359 39.0078 168.406 38.834 168.441 38.6543C168.48 38.4707 168.508 38.2871 168.523 38.1035C168.543 37.916 168.553 37.7363 168.553 37.5645C168.553 37.252 168.51 36.957 168.424 36.6797C168.338 36.3984 168.186 36.1523 167.967 35.9414C167.752 35.7266 167.459 35.5586 167.088 35.4375C166.721 35.3125 166.252 35.25 165.682 35.25C165.299 35.25 164.949 35.2891 164.633 35.3672C164.32 35.4414 164.039 35.5469 163.789 35.6836C163.539 35.8164 163.316 35.9746 163.121 36.1582C162.926 36.3418 162.756 36.543 162.611 36.7617C162.467 36.9766 162.344 37.207 162.242 37.4531C162.145 37.6953 162.066 37.9414 162.008 38.1914C161.949 38.4414 161.906 38.6914 161.879 38.9414C161.852 39.1914 161.838 39.4336 161.838 39.668C161.838 40.0938 161.885 40.4746 161.979 40.8105C162.072 41.1465 162.234 41.4316 162.465 41.666C162.695 41.9004 163.002 42.0781 163.385 42.1992C163.771 42.3242 164.254 42.3867 164.832 42.3867C165.133 42.3867 165.406 42.3691 165.652 42.334C165.902 42.2988 166.119 42.2617 166.303 42.2227C166.49 42.1836 166.643 42.1465 166.76 42.1113C166.877 42.0762 166.957 42.0586 167 42.0586C167.027 42.0586 167.051 42.0645 167.07 42.0762C167.09 42.0918 167.105 42.1191 167.117 42.1582C167.129 42.1973 167.137 42.25 167.141 42.3164C167.148 42.3828 167.152 42.4668 167.152 42.5684C167.152 42.6543 167.15 42.7266 167.146 42.7852C167.143 42.8438 167.135 42.8926 167.123 42.9316C167.115 42.9746 167.104 43.0098 167.088 43.0371C167.072 43.0684 167.053 43.0938 167.029 43.1133C167.006 43.1367 166.932 43.1699 166.807 43.2129C166.686 43.2559 166.521 43.2969 166.314 43.3359C166.111 43.3789 165.871 43.416 165.594 43.4473C165.32 43.4785 165.02 43.4941 164.691 43.4941C163.949 43.4941 163.316 43.4082 162.793 43.2363C162.27 43.0684 161.84 42.8223 161.504 42.498C161.172 42.1777 160.928 41.7891 160.771 41.332C160.619 40.8711 160.543 40.3535 160.543 39.7793C160.543 39.459 160.564 39.1328 160.607 38.8008C160.654 38.4688 160.725 38.1406 160.818 37.8164C160.912 37.4922 161.033 37.1777 161.182 36.873C161.334 36.5645 161.514 36.2734 161.721 36C161.928 35.7266 162.166 35.4766 162.436 35.25C162.709 35.0195 163.014 34.8223 163.35 34.6582C163.689 34.4941 164.062 34.3672 164.469 34.2773C164.879 34.1875 165.328 34.1426 165.816 34.1426C166.531 34.1426 167.143 34.2227 167.65 34.3828C168.162 34.543 168.582 34.7695 168.91 35.0625C169.238 35.3555 169.479 35.709 169.631 36.123C169.787 36.5332 169.865 36.9902 169.865 37.4941ZM165.928 38.0156C165.811 37.8008 165.688 37.6387 165.559 37.5293C165.434 37.4199 165.291 37.3652 165.131 37.3652C164.994 37.3652 164.871 37.3984 164.762 37.4648C164.656 37.5273 164.562 37.6133 164.48 37.7227C164.398 37.8281 164.328 37.9492 164.27 38.0859C164.215 38.2188 164.168 38.3555 164.129 38.4961C164.094 38.6367 164.068 38.7754 164.053 38.9121C164.037 39.0449 164.029 39.1621 164.029 39.2637C164.029 39.498 164.072 39.6836 164.158 39.8203C164.244 39.957 164.389 40.0254 164.592 40.0254C164.666 40.0254 164.742 40.0137 164.82 39.9902C164.902 39.9629 164.986 39.9219 165.072 39.8672C165.162 39.8086 165.256 39.7344 165.354 39.6445C165.455 39.5508 165.566 39.4395 165.688 39.3105L165.928 38.0156ZM179.674 41.8008C179.674 41.8398 179.662 41.875 179.639 41.9062C179.615 41.9336 179.576 41.957 179.521 41.9766C179.467 41.9961 179.393 42.0098 179.299 42.0176C179.205 42.0293 179.086 42.0352 178.941 42.0352C178.793 42.0352 178.672 42.0293 178.578 42.0176C178.484 42.0098 178.408 41.9961 178.35 41.9766C178.295 41.957 178.256 41.9336 178.232 41.9062C178.213 41.875 178.203 41.8398 178.203 41.8008V38.7012C178.203 38.5254 178.186 38.3652 178.15 38.2207C178.119 38.0762 178.068 37.9531 177.998 37.8516C177.932 37.7461 177.846 37.666 177.74 37.6113C177.639 37.5527 177.516 37.5234 177.371 37.5234C177.195 37.5234 177.018 37.5918 176.838 37.7285C176.658 37.8652 176.463 38.0645 176.252 38.3262V41.8008C176.252 41.8398 176.24 41.875 176.217 41.9062C176.193 41.9336 176.152 41.957 176.094 41.9766C176.039 41.9961 175.965 42.0098 175.871 42.0176C175.777 42.0293 175.66 42.0352 175.52 42.0352C175.375 42.0352 175.256 42.0293 175.162 42.0176C175.068 42.0098 174.992 41.9961 174.934 41.9766C174.879 41.957 174.84 41.9336 174.816 41.9062C174.793 41.875 174.781 41.8398 174.781 41.8008V38.7012C174.781 38.5254 174.764 38.3652 174.729 38.2207C174.697 38.0762 174.648 37.9531 174.582 37.8516C174.516 37.7461 174.43 37.666 174.324 37.6113C174.219 37.5527 174.096 37.5234 173.955 37.5234C173.775 37.5234 173.596 37.5918 173.416 37.7285C173.236 37.8652 173.043 38.0645 172.836 38.3262V41.8008C172.836 41.8398 172.824 41.875 172.801 41.9062C172.777 41.9336 172.736 41.957 172.678 41.9766C172.623 41.9961 172.549 42.0098 172.455 42.0176C172.361 42.0293 172.242 42.0352 172.098 42.0352C171.953 42.0352 171.834 42.0293 171.74 42.0176C171.646 42.0098 171.57 41.9961 171.512 41.9766C171.457 41.957 171.418 41.9336 171.395 41.9062C171.371 41.875 171.359 41.8398 171.359 41.8008V36.5742C171.359 36.5352 171.369 36.502 171.389 36.4746C171.408 36.4434 171.443 36.418 171.494 36.3984C171.545 36.3789 171.609 36.3652 171.688 36.3574C171.77 36.3457 171.871 36.3398 171.992 36.3398C172.117 36.3398 172.221 36.3457 172.303 36.3574C172.385 36.3652 172.447 36.3789 172.49 36.3984C172.537 36.418 172.57 36.4434 172.59 36.4746C172.609 36.502 172.619 36.5352 172.619 36.5742V37.1777C172.908 36.8652 173.195 36.6309 173.48 36.4746C173.77 36.3184 174.07 36.2402 174.383 36.2402C174.598 36.2402 174.791 36.2637 174.963 36.3105C175.135 36.3535 175.287 36.418 175.42 36.5039C175.557 36.5859 175.674 36.6855 175.771 36.8027C175.869 36.9199 175.951 37.0508 176.018 37.1953C176.174 37.0273 176.326 36.8828 176.475 36.7617C176.627 36.6406 176.775 36.543 176.92 36.4688C177.068 36.3906 177.215 36.334 177.359 36.2988C177.508 36.2598 177.658 36.2402 177.811 36.2402C178.158 36.2402 178.451 36.2988 178.689 36.416C178.928 36.5332 179.119 36.6934 179.264 36.8965C179.412 37.0957 179.518 37.3301 179.58 37.5996C179.643 37.8691 179.674 38.1543 179.674 38.4551V41.8008ZM183.928 42L183.295 43.8516C183.26 43.9492 183.164 44.0195 183.008 44.0625C182.852 44.1055 182.623 44.127 182.322 44.127C182.166 44.127 182.041 44.1191 181.947 44.1035C181.854 44.0918 181.783 44.0703 181.736 44.0391C181.689 44.0078 181.664 43.9688 181.66 43.9219C181.656 43.875 181.668 43.8184 181.695 43.752L182.393 42C182.342 41.9766 182.295 41.9414 182.252 41.8945C182.213 41.8438 182.184 41.791 182.164 41.7363L180.365 36.9316C180.314 36.7949 180.289 36.6914 180.289 36.6211C180.289 36.5469 180.312 36.4902 180.359 36.4512C180.406 36.4082 180.484 36.3789 180.594 36.3633C180.707 36.3477 180.855 36.3398 181.039 36.3398C181.207 36.3398 181.34 36.3438 181.438 36.3516C181.535 36.3555 181.611 36.3691 181.666 36.3926C181.721 36.416 181.762 36.4531 181.789 36.5039C181.816 36.5508 181.844 36.6191 181.871 36.709L183.102 40.207H183.119L184.244 36.6387C184.268 36.5371 184.297 36.4707 184.332 36.4395C184.371 36.4043 184.434 36.3789 184.52 36.3633C184.605 36.3477 184.756 36.3398 184.971 36.3398C185.139 36.3398 185.277 36.3477 185.387 36.3633C185.5 36.3789 185.582 36.4082 185.633 36.4512C185.688 36.4941 185.715 36.5527 185.715 36.627C185.715 36.6973 185.699 36.7812 185.668 36.8789L183.928 42ZM187.578 41.1562C187.578 41.5195 187.514 41.7637 187.385 41.8887C187.26 42.0137 187.033 42.0762 186.705 42.0762C186.377 42.0762 186.15 42.0156 186.025 41.8945C185.9 41.7695 185.838 41.5352 185.838 41.1914C185.838 40.8242 185.9 40.5781 186.025 40.4531C186.154 40.3281 186.385 40.2656 186.717 40.2656C187.041 40.2656 187.266 40.3281 187.391 40.4531C187.516 40.5742 187.578 40.8086 187.578 41.1562ZM194.1 34.8164C194.1 34.9609 194.086 35.084 194.059 35.1855C194.035 35.2832 193.992 35.3633 193.93 35.4258C193.867 35.4844 193.781 35.5273 193.672 35.5547C193.566 35.5781 193.434 35.5898 193.273 35.5898C193.113 35.5898 192.979 35.5781 192.869 35.5547C192.76 35.5273 192.672 35.4844 192.605 35.4258C192.543 35.3633 192.498 35.2832 192.471 35.1855C192.447 35.084 192.436 34.9609 192.436 34.8164C192.436 34.6758 192.447 34.5566 192.471 34.459C192.498 34.3613 192.543 34.2812 192.605 34.2188C192.672 34.1562 192.76 34.1113 192.869 34.084C192.979 34.0566 193.113 34.043 193.273 34.043C193.434 34.043 193.566 34.0566 193.672 34.084C193.781 34.1113 193.867 34.1562 193.93 34.2188C193.992 34.2812 194.035 34.3613 194.059 34.459C194.086 34.5566 194.1 34.6758 194.1 34.8164ZM193.988 41.8008C193.988 41.8398 193.977 41.875 193.953 41.9062C193.93 41.9336 193.891 41.957 193.836 41.9766C193.781 41.9961 193.705 42.0098 193.607 42.0176C193.514 42.0293 193.396 42.0352 193.256 42.0352C193.111 42.0352 192.99 42.0293 192.893 42.0176C192.799 42.0098 192.725 41.9961 192.67 41.9766C192.615 41.957 192.576 41.9336 192.553 41.9062C192.529 41.875 192.518 41.8398 192.518 41.8008V37.5703H190.578V41.8008C190.578 41.8398 190.566 41.875 190.543 41.9062C190.52 41.9336 190.48 41.957 190.426 41.9766C190.371 41.9961 190.295 42.0098 190.197 42.0176C190.104 42.0293 189.984 42.0352 189.84 42.0352C189.699 42.0352 189.58 42.0293 189.482 42.0176C189.389 42.0098 189.312 41.9961 189.254 41.9766C189.199 41.957 189.16 41.9336 189.137 41.9062C189.117 41.875 189.107 41.8398 189.107 41.8008V37.5703H188.451C188.377 37.5703 188.32 37.5254 188.281 37.4355C188.246 37.3418 188.229 37.1875 188.229 36.9727C188.229 36.8594 188.232 36.7637 188.24 36.6855C188.252 36.6074 188.266 36.5469 188.281 36.5039C188.301 36.457 188.324 36.4238 188.352 36.4043C188.383 36.3848 188.418 36.375 188.457 36.375H189.107V35.9121C189.107 35.5566 189.143 35.2461 189.213 34.9805C189.287 34.7148 189.398 34.4941 189.547 34.3184C189.695 34.1387 189.883 34.0059 190.109 33.9199C190.336 33.8301 190.604 33.7852 190.912 33.7852C190.998 33.7852 191.084 33.7891 191.17 33.7969C191.26 33.8047 191.344 33.8164 191.422 33.832C191.5 33.8477 191.568 33.8652 191.627 33.8848C191.686 33.9043 191.725 33.9258 191.744 33.9492C191.768 33.9688 191.785 33.9922 191.797 34.0195C191.812 34.0469 191.824 34.082 191.832 34.125C191.844 34.168 191.852 34.2246 191.855 34.2949C191.859 34.3613 191.861 34.4453 191.861 34.5469C191.861 34.7344 191.85 34.8672 191.826 34.9453C191.807 35.0195 191.766 35.0566 191.703 35.0566C191.68 35.0566 191.652 35.0527 191.621 35.0449C191.594 35.0371 191.559 35.0273 191.516 35.0156C191.477 35.0039 191.43 34.9941 191.375 34.9863C191.32 34.9746 191.252 34.9688 191.17 34.9688C190.963 34.9688 190.812 35.0391 190.719 35.1797C190.625 35.3203 190.578 35.5527 190.578 35.877V36.375H193.543C193.691 36.375 193.803 36.4082 193.877 36.4746C193.951 36.5371 193.988 36.6387 193.988 36.7793V41.8008ZM198.57 41.2852C198.57 41.457 198.559 41.5898 198.535 41.6836C198.516 41.7734 198.488 41.8379 198.453 41.877C198.418 41.9121 198.365 41.9453 198.295 41.9766C198.229 42.0039 198.148 42.0273 198.055 42.0469C197.965 42.0703 197.865 42.0879 197.756 42.0996C197.65 42.1113 197.543 42.1172 197.434 42.1172C197.141 42.1172 196.887 42.0801 196.672 42.0059C196.457 41.9316 196.279 41.8184 196.139 41.666C195.998 41.5098 195.895 41.3145 195.828 41.0801C195.762 40.8457 195.729 40.5684 195.729 40.248V37.5703H195.102C195.027 37.5703 194.971 37.5254 194.932 37.4355C194.893 37.3418 194.873 37.1875 194.873 36.9727C194.873 36.8594 194.877 36.7637 194.885 36.6855C194.896 36.6074 194.912 36.5469 194.932 36.5039C194.951 36.457 194.975 36.4238 195.002 36.4043C195.033 36.3848 195.068 36.375 195.107 36.375H195.729V35.209C195.729 35.1699 195.738 35.1348 195.758 35.1035C195.781 35.0723 195.82 35.0469 195.875 35.0273C195.934 35.0039 196.01 34.9883 196.104 34.9805C196.201 34.9688 196.32 34.9629 196.461 34.9629C196.605 34.9629 196.725 34.9688 196.818 34.9805C196.916 34.9883 196.992 35.0039 197.047 35.0273C197.102 35.0469 197.141 35.0723 197.164 35.1035C197.188 35.1348 197.199 35.1699 197.199 35.209V36.375H198.336C198.375 36.375 198.408 36.3848 198.436 36.4043C198.467 36.4238 198.492 36.457 198.512 36.5039C198.531 36.5469 198.545 36.6074 198.553 36.6855C198.564 36.7637 198.57 36.8594 198.57 36.9727C198.57 37.1875 198.551 37.3418 198.512 37.4355C198.473 37.5254 198.416 37.5703 198.342 37.5703H197.199V40.0254C197.199 40.3105 197.244 40.5254 197.334 40.6699C197.424 40.8105 197.584 40.8809 197.814 40.8809C197.893 40.8809 197.963 40.875 198.025 40.8633C198.088 40.8477 198.143 40.832 198.189 40.8164C198.24 40.7969 198.281 40.7812 198.312 40.7695C198.348 40.7539 198.379 40.7461 198.406 40.7461C198.43 40.7461 198.451 40.7539 198.471 40.7695C198.494 40.7812 198.512 40.8086 198.523 40.8516C198.535 40.8906 198.545 40.9453 198.553 41.0156C198.564 41.0859 198.57 41.1758 198.57 41.2852ZM201.371 41.1562C201.371 41.5195 201.307 41.7637 201.178 41.8887C201.053 42.0137 200.826 42.0762 200.498 42.0762C200.17 42.0762 199.943 42.0156 199.818 41.8945C199.693 41.7695 199.631 41.5352 199.631 41.1914C199.631 40.8242 199.693 40.5781 199.818 40.4531C199.947 40.3281 200.178 40.2656 200.51 40.2656C200.834 40.2656 201.059 40.3281 201.184 40.4531C201.309 40.5742 201.371 40.8086 201.371 41.1562ZM207.676 39.0352C207.676 39.2148 207.635 39.3477 207.553 39.4336C207.475 39.5195 207.365 39.5625 207.225 39.5625H204.043C204.043 39.7852 204.068 39.9883 204.119 40.1719C204.174 40.3516 204.258 40.5059 204.371 40.6348C204.488 40.7598 204.637 40.8555 204.816 40.9219C205 40.9883 205.219 41.0215 205.473 41.0215C205.73 41.0215 205.957 41.0039 206.152 40.9688C206.348 40.9297 206.516 40.8887 206.656 40.8457C206.801 40.7988 206.92 40.7578 207.014 40.7227C207.107 40.6836 207.184 40.6641 207.242 40.6641C207.277 40.6641 207.307 40.6719 207.33 40.6875C207.354 40.6992 207.373 40.7227 207.389 40.7578C207.404 40.793 207.414 40.8438 207.418 40.9102C207.426 40.9727 207.43 41.0527 207.43 41.1504C207.43 41.2363 207.428 41.3105 207.424 41.373C207.42 41.4316 207.414 41.4824 207.406 41.5254C207.398 41.5684 207.387 41.6055 207.371 41.6367C207.355 41.6641 207.334 41.6914 207.307 41.7188C207.283 41.7461 207.215 41.7832 207.102 41.8301C206.988 41.877 206.844 41.9238 206.668 41.9707C206.492 42.0137 206.291 42.0508 206.064 42.082C205.838 42.1172 205.596 42.1348 205.338 42.1348C204.873 42.1348 204.465 42.0762 204.113 41.959C203.766 41.8418 203.475 41.6641 203.24 41.4258C203.006 41.1875 202.83 40.8867 202.713 40.5234C202.6 40.1602 202.543 39.7344 202.543 39.2461C202.543 38.7812 202.604 38.3633 202.725 37.9922C202.846 37.6172 203.021 37.3008 203.252 37.043C203.482 36.7812 203.762 36.582 204.09 36.4453C204.422 36.3086 204.795 36.2402 205.209 36.2402C205.646 36.2402 206.02 36.3047 206.328 36.4336C206.641 36.5625 206.896 36.7422 207.096 36.9727C207.295 37.1992 207.441 37.4688 207.535 37.7812C207.629 38.0938 207.676 38.4336 207.676 38.8008V39.0352ZM206.246 38.6133C206.258 38.1992 206.174 37.875 205.994 37.6406C205.818 37.4023 205.545 37.2832 205.174 37.2832C204.986 37.2832 204.822 37.3184 204.682 37.3887C204.545 37.459 204.43 37.5547 204.336 37.6758C204.246 37.793 204.176 37.9336 204.125 38.0977C204.078 38.2578 204.051 38.4297 204.043 38.6133H206.246ZM213.852 41.8008C213.852 41.8438 213.842 41.8809 213.822 41.9121C213.803 41.9395 213.77 41.9629 213.723 41.9824C213.676 42.002 213.611 42.0156 213.529 42.0234C213.451 42.0312 213.354 42.0352 213.236 42.0352C213.111 42.0352 213.01 42.0312 212.932 42.0234C212.854 42.0156 212.789 42.002 212.738 41.9824C212.691 41.9629 212.656 41.9395 212.633 41.9121C212.613 41.8809 212.604 41.8438 212.604 41.8008V41.2207C212.334 41.5098 212.051 41.7344 211.754 41.8945C211.461 42.0547 211.135 42.1348 210.775 42.1348C210.377 42.1348 210.039 42.0586 209.762 41.9062C209.488 41.75 209.264 41.541 209.088 41.2793C208.916 41.0176 208.791 40.7129 208.713 40.3652C208.635 40.0137 208.596 39.6445 208.596 39.2578C208.596 38.793 208.645 38.375 208.742 38.0039C208.844 37.6328 208.99 37.3164 209.182 37.0547C209.373 36.793 209.611 36.5918 209.896 36.4512C210.182 36.3105 210.51 36.2402 210.881 36.2402C211.174 36.2402 211.439 36.3008 211.678 36.4219C211.916 36.5391 212.152 36.7129 212.387 36.9434V34.1133C212.387 34.0742 212.396 34.0391 212.416 34.0078C212.439 33.9766 212.479 33.9512 212.533 33.9316C212.592 33.9082 212.668 33.8906 212.762 33.8789C212.855 33.8672 212.975 33.8613 213.119 33.8613C213.264 33.8613 213.383 33.8672 213.477 33.8789C213.57 33.8906 213.645 33.9082 213.699 33.9316C213.754 33.9512 213.793 33.9766 213.816 34.0078C213.84 34.0391 213.852 34.0742 213.852 34.1133V41.8008ZM212.387 38.3086C212.176 38.043 211.973 37.8398 211.777 37.6992C211.586 37.5586 211.385 37.4883 211.174 37.4883C210.982 37.4883 210.816 37.5371 210.676 37.6348C210.539 37.7285 210.428 37.8555 210.342 38.0156C210.26 38.1758 210.197 38.3555 210.154 38.5547C210.115 38.75 210.096 38.9512 210.096 39.1582C210.096 39.377 210.113 39.5898 210.148 39.7969C210.184 40.0039 210.24 40.1895 210.318 40.3535C210.4 40.5137 210.508 40.6426 210.641 40.7402C210.773 40.8379 210.941 40.8867 211.145 40.8867C211.246 40.8867 211.344 40.873 211.438 40.8457C211.535 40.8145 211.633 40.7656 211.73 40.6992C211.832 40.6328 211.936 40.5469 212.041 40.4414C212.146 40.332 212.262 40.1992 212.387 40.043V38.3086ZM220.297 41.8008C220.297 41.8398 220.287 41.875 220.268 41.9062C220.248 41.9336 220.213 41.957 220.162 41.9766C220.115 41.9961 220.051 42.0098 219.969 42.0176C219.891 42.0293 219.791 42.0352 219.67 42.0352C219.541 42.0352 219.436 42.0293 219.354 42.0176C219.275 42.0098 219.213 41.9961 219.166 41.9766C219.119 41.957 219.086 41.9336 219.066 41.9062C219.047 41.875 219.037 41.8398 219.037 41.8008V41.1973C218.748 41.5098 218.453 41.7441 218.152 41.9004C217.855 42.0566 217.547 42.1348 217.227 42.1348C216.867 42.1348 216.564 42.0762 216.318 41.959C216.076 41.8418 215.879 41.6816 215.727 41.4785C215.578 41.2754 215.471 41.041 215.404 40.7754C215.342 40.5059 215.311 40.1719 215.311 39.7734V36.5742C215.311 36.5352 215.32 36.502 215.34 36.4746C215.363 36.4434 215.402 36.418 215.457 36.3984C215.516 36.3789 215.592 36.3652 215.686 36.3574C215.783 36.3457 215.902 36.3398 216.043 36.3398C216.188 36.3398 216.307 36.3457 216.4 36.3574C216.494 36.3652 216.568 36.3789 216.623 36.3984C216.682 36.418 216.723 36.4434 216.746 36.4746C216.77 36.502 216.781 36.5352 216.781 36.5742V39.5273C216.781 39.8008 216.799 40.0098 216.834 40.1543C216.869 40.2988 216.922 40.4238 216.992 40.5293C217.066 40.6309 217.158 40.7109 217.268 40.7695C217.381 40.8242 217.512 40.8516 217.66 40.8516C217.848 40.8516 218.035 40.7832 218.223 40.6465C218.414 40.5098 218.617 40.3105 218.832 40.0488V36.5742C218.832 36.5352 218.842 36.502 218.861 36.4746C218.885 36.4434 218.924 36.418 218.979 36.3984C219.037 36.3789 219.113 36.3652 219.207 36.3574C219.301 36.3457 219.42 36.3398 219.564 36.3398C219.709 36.3398 219.828 36.3457 219.922 36.3574C220.016 36.3652 220.09 36.3789 220.145 36.3984C220.199 36.418 220.238 36.4434 220.262 36.4746C220.285 36.502 220.297 36.5352 220.297 36.5742V41.8008Z" fill="#626262"/>
<path d="M89.8828 28.7188C89.8828 28.7708 89.8672 28.8177 89.8359 28.8594C89.8099 28.901 89.7578 28.9349 89.6797 28.9609C89.6068 28.987 89.5078 29.0078 89.3828 29.0234C89.2578 29.0391 89.099 29.0469 88.9062 29.0469C88.7188 29.0469 88.5625 29.0391 88.4375 29.0234C88.3125 29.0078 88.2135 28.987 88.1406 28.9609C88.0677 28.9349 88.0156 28.901 87.9844 28.8594C87.9531 28.8177 87.9375 28.7708 87.9375 28.7188V20.4922H87.9219L84.9922 28.7109C84.9714 28.7786 84.9375 28.8359 84.8906 28.8828C84.8438 28.9245 84.7786 28.9583 84.6953 28.9844C84.6172 29.0104 84.5156 29.026 84.3906 29.0312C84.2656 29.0417 84.1146 29.0469 83.9375 29.0469C83.7604 29.0469 83.6094 29.0391 83.4844 29.0234C83.3594 29.013 83.2552 28.9948 83.1719 28.9688C83.0938 28.9375 83.0312 28.901 82.9844 28.8594C82.9375 28.8177 82.9062 28.7682 82.8906 28.7109L80.0625 20.4922H80.0469V28.7188C80.0469 28.7708 80.0312 28.8177 80 28.8594C79.974 28.901 79.9219 28.9349 79.8438 28.9609C79.7656 28.987 79.6641 29.0078 79.5391 29.0234C79.4193 29.0391 79.263 29.0469 79.0703 29.0469C78.8828 29.0469 78.7266 29.0391 78.6016 29.0234C78.4766 29.0078 78.375 28.987 78.2969 28.9609C78.224 28.9349 78.1719 28.901 78.1406 28.8594C78.1146 28.8177 78.1016 28.7708 78.1016 28.7188V19.7109C78.1016 19.4453 78.1719 19.2422 78.3125 19.1016C78.4531 18.9609 78.6406 18.8906 78.875 18.8906H80.2188C80.4583 18.8906 80.6641 18.9115 80.8359 18.9531C81.0078 18.9896 81.1562 19.0547 81.2812 19.1484C81.4062 19.237 81.5104 19.3568 81.5938 19.5078C81.6771 19.6536 81.75 19.8359 81.8125 20.0547L84 26.0781H84.0312L86.2969 20.0703C86.3646 19.8516 86.4375 19.6667 86.5156 19.5156C86.599 19.3646 86.6927 19.2422 86.7969 19.1484C86.9062 19.0547 87.0339 18.9896 87.1797 18.9531C87.3255 18.9115 87.4948 18.8906 87.6875 18.8906H89.0703C89.2109 18.8906 89.3307 18.9089 89.4297 18.9453C89.5339 18.9818 89.6172 19.0365 89.6797 19.1094C89.7474 19.1771 89.7969 19.263 89.8281 19.3672C89.8646 19.4661 89.8828 19.5807 89.8828 19.7109V28.7188ZM97.9062 28.7578C97.9062 28.8307 97.8802 28.888 97.8281 28.9297C97.776 28.9714 97.6927 29 97.5781 29.0156C97.4688 29.0365 97.3047 29.0469 97.0859 29.0469C96.8516 29.0469 96.6797 29.0365 96.5703 29.0156C96.4661 29 96.3906 28.9714 96.3438 28.9297C96.3021 28.888 96.2812 28.8307 96.2812 28.7578V28.2031C95.9948 28.5104 95.6667 28.75 95.2969 28.9219C94.9323 29.0938 94.526 29.1797 94.0781 29.1797C93.7083 29.1797 93.3672 29.1302 93.0547 29.0312C92.7474 28.9375 92.4792 28.7969 92.25 28.6094C92.026 28.4167 91.8516 28.1797 91.7266 27.8984C91.6016 27.6172 91.5391 27.2891 91.5391 26.9141C91.5391 26.5078 91.6172 26.1562 91.7734 25.8594C91.9349 25.5573 92.1719 25.3099 92.4844 25.1172C92.8021 24.9193 93.1953 24.7734 93.6641 24.6797C94.1328 24.5859 94.6771 24.5391 95.2969 24.5391H95.9766V24.1172C95.9766 23.8984 95.9531 23.7083 95.9062 23.5469C95.8646 23.3802 95.7917 23.2422 95.6875 23.1328C95.5885 23.0234 95.4531 22.9427 95.2812 22.8906C95.1146 22.8385 94.9062 22.8125 94.6562 22.8125C94.3281 22.8125 94.0339 22.849 93.7734 22.9219C93.5182 22.9948 93.2917 23.0755 93.0938 23.1641C92.8958 23.2526 92.7292 23.3333 92.5938 23.4062C92.4635 23.4792 92.3568 23.5156 92.2734 23.5156C92.2161 23.5156 92.1641 23.4974 92.1172 23.4609C92.0755 23.4245 92.0391 23.3724 92.0078 23.3047C91.9818 23.237 91.9609 23.1536 91.9453 23.0547C91.9297 22.9557 91.9219 22.8464 91.9219 22.7266C91.9219 22.5651 91.9349 22.4375 91.9609 22.3438C91.987 22.25 92.0365 22.1667 92.1094 22.0938C92.1823 22.0156 92.3099 21.9323 92.4922 21.8438C92.6745 21.75 92.888 21.6641 93.1328 21.5859C93.3776 21.5078 93.6432 21.4453 93.9297 21.3984C94.2214 21.3464 94.5208 21.3203 94.8281 21.3203C95.375 21.3203 95.8411 21.375 96.2266 21.4844C96.6172 21.5885 96.9375 21.7526 97.1875 21.9766C97.4375 22.1953 97.6198 22.4792 97.7344 22.8281C97.849 23.1771 97.9062 23.5911 97.9062 24.0703V28.7578ZM95.9766 25.7734H95.2266C94.9089 25.7734 94.638 25.7969 94.4141 25.8438C94.1901 25.8906 94.0078 25.9609 93.8672 26.0547C93.7266 26.1484 93.6224 26.263 93.5547 26.3984C93.4922 26.5286 93.4609 26.6797 93.4609 26.8516C93.4609 27.1432 93.5521 27.3724 93.7344 27.5391C93.9219 27.7057 94.1797 27.7891 94.5078 27.7891C94.7839 27.7891 95.0365 27.7188 95.2656 27.5781C95.5 27.4375 95.737 27.2318 95.9766 26.9609V25.7734ZM101.844 28.7344C101.844 28.7865 101.828 28.8333 101.797 28.875C101.766 28.9115 101.711 28.9427 101.633 28.9688C101.56 28.9948 101.461 29.013 101.336 29.0234C101.211 29.0391 101.052 29.0469 100.859 29.0469C100.667 29.0469 100.508 29.0391 100.383 29.0234C100.258 29.013 100.156 28.9948 100.078 28.9688C100.005 28.9427 99.9531 28.9115 99.9219 28.875C99.8906 28.8333 99.875 28.7865 99.875 28.7344V21.7812C99.875 21.7292 99.8906 21.6849 99.9219 21.6484C99.9531 21.6068 100.005 21.5729 100.078 21.5469C100.156 21.5156 100.258 21.4922 100.383 21.4766C100.508 21.4609 100.667 21.4531 100.859 21.4531C101.052 21.4531 101.211 21.4609 101.336 21.4766C101.461 21.4922 101.56 21.5156 101.633 21.5469C101.711 21.5729 101.766 21.6068 101.797 21.6484C101.828 21.6849 101.844 21.7292 101.844 21.7812V28.7344ZM101.992 19.4062C101.992 19.8021 101.911 20.0755 101.75 20.2266C101.589 20.3776 101.289 20.4531 100.852 20.4531C100.409 20.4531 100.109 20.3802 99.9531 20.2344C99.8021 20.0885 99.7266 19.8255 99.7266 19.4453C99.7266 19.0495 99.8047 18.776 99.9609 18.625C100.122 18.4688 100.424 18.3906 100.867 18.3906C101.305 18.3906 101.602 18.4661 101.758 18.6172C101.914 18.763 101.992 19.026 101.992 19.4062ZM105.781 28.7344C105.781 28.7865 105.766 28.8333 105.734 28.875C105.703 28.9115 105.648 28.9427 105.57 28.9688C105.497 28.9948 105.398 29.013 105.273 29.0234C105.148 29.0391 104.99 29.0469 104.797 29.0469C104.604 29.0469 104.445 29.0391 104.32 29.0234C104.195 29.013 104.094 28.9948 104.016 28.9688C103.943 28.9427 103.891 28.9115 103.859 28.875C103.828 28.8333 103.812 28.7865 103.812 28.7344V18.4609C103.812 18.4089 103.828 18.362 103.859 18.3203C103.891 18.2786 103.943 18.2448 104.016 18.2188C104.094 18.1875 104.195 18.1641 104.32 18.1484C104.445 18.1328 104.604 18.125 104.797 18.125C104.99 18.125 105.148 18.1328 105.273 18.1484C105.398 18.1641 105.497 18.1875 105.57 18.2188C105.648 18.2448 105.703 18.2786 105.734 18.3203C105.766 18.362 105.781 18.4089 105.781 18.4609V28.7344Z" fill="black"/>
<defs>
<filter id="filter0_d_82_118" x="0" y="0" width="70" height="69" filterUnits="userSpaceOnUse" color-interpolation-filters="sRGB">
<feFlood flood-opacity="0" result="BackgroundImageFix"/>
<feColorMatrix in="SourceAlpha" type="matrix" values="0 0 0 0 0 0 0 0 0 0 0 0 0 0 0 0 0 0 127 0" result="hardAlpha"/>
<feOffset dy="4"/>
<feGaussianBlur stdDeviation="2"/>
<feComposite in2="hardAlpha" operator="out"/>
<feColorMatrix type="matrix" values="0 0 0 0 0 0 0 0 0 0 0 0 0 0 0 0 0 0 0.25 0"/>
<feBlend mode="normal" in2="BackgroundImageFix" result="effect1_dropShadow_82_118"/>
<feBlend mode="normal" in="SourceGraphic" in2="effect1_dropShadow_82_118" result="shape"/>
</filter>
</defs>
</svg>
