<svg width="30" height="21" viewBox="0 0 30 21" fill="none" xmlns="http://www.w3.org/2000/svg">
<path d="M29.4118 13.5688V14.9507C29.4118 17.4549 26.7384 20.0449 23.479 20.0449H5.93277C2.63235 20.0449 0 17.4973 0 14.9496V13.5688H29.4118Z" fill="#9D5125"/>
<path d="M11.3214 0.141121C12.77 0.135771 14.1888 0.565729 15.4051 1.37865C16.6214 2.19157 17.5828 3.35239 18.1723 4.71979C18.8119 4.26733 19.5695 4.02655 20.3445 4.02941C21.3343 4.01886 22.2883 4.41168 22.9998 5.12279C23.7113 5.8339 24.1231 6.80605 24.146 7.82868C25.5087 7.99133 26.7758 8.63342 27.7346 9.64719C28.6934 10.661 29.2856 11.9847 29.4118 13.3962V13.914C29.4118 16.4617 26.7384 19.0083 23.437 19.0083H5.93277C2.63235 19.0083 0 16.4606 0 13.914V13.3962C0.0690769 12.2312 0.465513 11.1123 1.14073 10.1766C1.81595 9.24088 2.74063 8.52904 3.80147 8.12828V7.91118C3.79744 6.88954 3.98921 5.87719 4.3657 4.93253C4.7422 3.98788 5.29598 3.12961 5.99509 2.40725C6.6942 1.68489 7.52481 1.11273 8.43898 0.723786C9.35316 0.334843 10.3328 0.136813 11.3214 0.141121Z" fill="#F58535"/>
<path d="M7.35294 9.1649L5.3897 16.2457H6.55882L7.0189 14.5186H9.02416L9.44432 16.2457H10.6092L8.771 9.1649H7.35294ZM7.18592 13.6155L8.02626 10.118L8.82037 13.6155H7.18592Z" fill="white"/>
<path d="M15.541 14.7346H15.5L14.5809 9.1649H13.4107L12.5336 14.6912H12.4916L11.5725 9.1649H10.4863L11.8235 16.288H13.0767L13.9538 10.9354H13.9958L14.8729 16.288H16.1681L17.5473 9.1649H16.4191L15.541 14.7346Z" fill="white"/>
<path d="M21.0977 12.403L20.3456 12.1436C19.5935 11.8418 19.3014 11.4922 19.3014 10.892C19.2875 10.7558 19.3014 10.618 19.3423 10.4877C19.3832 10.3575 19.4501 10.2375 19.5388 10.1357C19.6274 10.0339 19.7358 9.95244 19.8569 9.8967C19.978 9.84097 20.109 9.81217 20.2416 9.81217C20.3741 9.81217 20.5052 9.84097 20.6263 9.8967C20.7473 9.95244 20.8557 10.0339 20.9444 10.1357C21.033 10.2375 21.1 10.3575 21.1408 10.4877C21.1817 10.618 21.1957 10.7558 21.1817 10.892V11.0211H22.2689V10.8485C22.2689 10.1147 22.1019 8.99233 20.3056 8.99233C20.0316 8.95535 19.753 8.98094 19.4895 9.06728C19.226 9.15361 18.984 9.2986 18.7806 9.49203C18.5772 9.68546 18.4173 9.92262 18.3122 10.1868C18.2071 10.451 18.1593 10.7358 18.1722 11.0211C18.1485 11.4727 18.2834 11.918 18.5521 12.275C18.8207 12.632 19.2051 12.8767 19.6344 12.9642L20.3865 13.2236C20.6757 13.2629 20.9399 13.4137 21.1259 13.6459C21.312 13.878 21.4062 14.1743 21.3897 14.4752C21.394 14.6162 21.3696 14.7565 21.3181 14.8872C21.2666 15.0178 21.1892 15.1358 21.0907 15.2335C20.9923 15.3313 20.8751 15.4065 20.7468 15.4545C20.6184 15.5024 20.4817 15.522 20.3456 15.5119C19.5935 15.5119 19.2174 15.0802 19.2174 14.2169V14.0443H18.1313V14.2169C18.0968 14.5089 18.1272 14.8053 18.22 15.0834C18.3128 15.3616 18.4656 15.6143 18.667 15.8224C18.8683 16.0304 19.1128 16.1884 19.382 16.2843C19.6512 16.3802 19.9379 16.4115 20.2206 16.3759C21.5987 16.3759 22.5178 15.7713 22.5178 14.2603C22.5237 13.8292 22.3857 13.4092 22.1271 13.0709C21.8684 12.7326 21.5049 12.4968 21.0977 12.403Z" fill="white"/>
</svg>
