<svg width="27" height="31" viewBox="0 0 27 31" fill="none" xmlns="http://www.w3.org/2000/svg">
<path d="M3.06054 27.3027L0.705879 0H26.5882L24.2304 27.2983L13.6313 30.3351L3.06054 27.3027Z" fill="#1572B6"/>
<path d="M13.647 28.0145L22.2123 25.5606L24.2273 2.23289H13.647V28.0145Z" fill="#33A9DC"/>
<path d="M13.647 12.1243H17.9349L18.2306 8.69533H13.647V5.34656H13.6586H21.772L21.6944 6.24469L20.8987 15.4731H13.647V12.1243Z" fill="white"/>
<path d="M13.667 20.8207L13.6523 20.825L10.0438 19.8175L9.81314 17.1469H8.0592H6.56002L7.01397 22.4046L13.6512 24.3092L13.667 24.3049V20.8207Z" fill="#EBEBEB"/>
<path d="M17.6592 15.3311L17.2692 19.8153L13.6554 20.8229V24.3071L20.298 22.4046L20.3472 21.8391L20.9102 15.3311H17.6592Z" fill="white"/>
<path d="M13.6586 5.34656V7.42668V8.68667V8.69533H5.84188H5.8314L5.7664 7.94237L5.61858 6.24469L5.541 5.34656H13.6586Z" fill="#EBEBEB"/>
<path d="M13.6471 12.1243V14.2044V15.4644V15.4731H10.0941H10.0836L10.0186 14.7201L9.87185 13.0224L9.79427 12.1243H13.6471Z" fill="#EBEBEB"/>
</svg>
