<svg width="31" height="44" viewBox="0 0 31 44" fill="none" xmlns="http://www.w3.org/2000/svg">
<path d="M0.429571 22.4515L14.4177 42.6563C14.6706 43.0225 15.0797 43.2383 15.5145 43.2394H15.5178C15.9553 43.2383 16.3633 43.0197 16.6173 42.6519L30.5152 22.4476C30.8083 22.0221 30.8459 21.4623 30.6135 20.9985C30.3848 20.5352 29.9198 20.2434 29.413 20.2434H22.8723L22.8729 2.09638C22.8729 1.3252 22.2689 0.70105 21.5221 0.70105L9.42053 0.701605C8.67481 0.70105 8.0703 1.3252 8.06976 2.09749V20.2423H1.52747C1.02281 20.2423 0.559493 20.5363 0.326492 21.0007C0.0940274 21.4645 0.134292 22.0254 0.429571 22.4515Z" fill="black"/>
</svg>
