<svg width="27" height="38" viewBox="0 0 27 38" fill="none" xmlns="http://www.w3.org/2000/svg">
<path d="M0.705879 30.0456L0.921565 29.7348L11.0969 9.78741L11.1185 9.57632L6.63344 0.870477C6.55134 0.711276 6.42287 0.582786 6.26621 0.503184C6.10955 0.423583 5.93264 0.3969 5.76051 0.42691C5.58837 0.45692 5.42972 0.542105 5.307 0.670412C5.18429 0.798719 5.10372 0.963652 5.0767 1.14188L0.705879 30.0456Z" fill="#FFC24A"/>
<path d="M0.832752 29.8095L0.995151 29.4818L11.0652 9.74152L6.59158 1.00159C6.5178 0.849592 6.39836 0.726392 6.25114 0.650442C6.10392 0.574493 5.93684 0.549883 5.77495 0.580302C5.61306 0.61072 5.46506 0.694528 5.35313 0.819169C5.2412 0.943811 5.17137 1.10258 5.15409 1.27168L0.832752 29.8095Z" fill="#FFA712"/>
<path d="M14.388 16.1608L17.7273 12.6207L14.3867 6.03759C14.3132 5.89591 14.2039 5.77749 14.0704 5.69493C13.9369 5.61238 13.7842 5.56878 13.6287 5.56878C13.4731 5.56878 13.3204 5.61238 13.1869 5.69493C13.0534 5.77749 12.9441 5.89591 12.8706 6.03759L11.0855 9.55402V9.85427L14.388 16.1608Z" fill="#F4BD62"/>
<path d="M14.3284 16.0166L17.5751 12.5814L14.3284 6.18315C14.2752 6.04465 14.1845 5.925 14.067 5.83861C13.9495 5.75222 13.8104 5.70279 13.6664 5.69628C13.5223 5.68977 13.3796 5.72645 13.2552 5.8019C13.1309 5.87735 13.0304 5.98835 12.9657 6.12152L11.1717 9.69957L11.1185 9.88182L14.3284 16.0166Z" fill="#FFA50E"/>
<path d="M0.708416 30.0469L0.806109 29.9446L1.16009 29.7964L14.1774 16.3941L14.3423 15.93L11.0956 9.53436L0.708416 30.0469Z" fill="#F6820C"/>
<path d="M14.8041 36.8057L26.5882 30.0154L23.221 8.60347C23.1968 8.45253 23.1329 8.31138 23.0363 8.19552C22.9396 8.07965 22.8139 7.99356 22.673 7.94669C22.532 7.89981 22.3813 7.89397 22.2374 7.92981C22.0935 7.96564 21.9619 8.04177 21.8571 8.14982L0.705879 30.0456L12.4202 36.8044C12.7844 37.0144 13.1945 37.1246 13.6115 37.1246C14.0286 37.1246 14.4387 37.0144 14.8029 36.8044" fill="#FDE068"/>
<path d="M26.4804 29.959L23.1411 8.70835C23.1352 8.56398 23.088 8.42466 23.0054 8.30802C22.9229 8.19139 22.8087 8.10268 22.6773 8.05313C22.546 8.00358 22.4033 7.99541 22.2675 8.02966C22.1317 8.06391 22.0087 8.13903 21.9142 8.24552L0.832752 30.0049L12.4176 36.6916C12.7789 36.8999 13.1858 37.0092 13.5995 37.0092C14.0132 37.0092 14.42 36.8999 14.7813 36.6916L26.4804 29.959Z" fill="#FCCA3F"/>
<path d="M14.8041 36.6012C14.44 36.8112 14.0298 36.9214 13.6128 36.9214C13.1957 36.9214 12.7856 36.8112 12.4214 36.6012L0.802303 29.9433L0.705879 30.0456L12.4202 36.8044C12.7844 37.0144 13.1945 37.1246 13.6115 37.1246C14.0286 37.1246 14.4387 37.0144 14.8029 36.8044L26.5882 30.0154L26.559 29.8318L14.8041 36.6012Z" fill="#EEAB37"/>
</svg>
