<svg width="27" height="31" viewBox="0 0 27 31" fill="none" xmlns="http://www.w3.org/2000/svg">
<path d="M2.53198 27.3005L0.176468 0H26.0588L23.7002 27.2961L13.1019 30.3326L2.53198 27.3005Z" fill="#E44F26"/>
<path d="M13.1176 28.0122L21.6822 25.5585L23.697 2.2327H13.1176V28.0122Z" fill="#F1662A"/>
<path d="M13.1176 12.3573H8.83013L8.53451 8.92863H13.1176V5.58012H13.1061H4.99338L5.07095 6.47927L5.86661 15.7058H13.1176V12.3573Z" fill="#EBEBEB"/>
<path d="M13.1176 21.053L13.103 21.0574L9.49474 20.051L9.26411 17.3806H7.51032H6.01126L6.46517 22.6368L13.103 24.5413L13.1176 24.5369V21.053Z" fill="#EBEBEB"/>
<path d="M13.1061 12.3573V15.7058H17.0959L16.7206 20.0488L13.1061 21.0563V24.5402L19.7491 22.6368L19.7974 22.0713L20.5584 13.2565L20.6381 12.3573H19.7649H13.1061Z" fill="white"/>
<path d="M13.1061 5.58012V7.66008V8.92105V8.92863H20.9222H20.9327L20.9977 8.17681L21.1455 6.47927L21.223 5.58012H13.1061Z" fill="white"/>
</svg>
