<svg width="27" height="27" viewBox="0 0 27 27" fill="none" xmlns="http://www.w3.org/2000/svg">
<path d="M0.235291 0.215767H26.1176V26.9626H0.235291V0.215767Z" fill="#F5DE19"/>
<path d="M17.6218 21.1118C17.8423 21.5747 18.1849 21.9638 18.6101 22.2342C19.0353 22.5046 19.5259 22.6453 20.0251 22.6402C21.0327 22.6402 21.677 22.1195 21.677 21.3983C21.677 20.5386 21.0151 20.231 19.9059 19.7295L19.2976 19.4601C17.5413 18.6874 16.3766 17.7197 16.3766 15.6736C16.3766 13.7889 17.7632 12.3531 19.9382 12.3531C20.6423 12.3006 21.3458 12.4634 21.9609 12.8213C22.5761 13.1793 23.0756 13.7164 23.3972 14.3658L21.4958 15.622C21.3719 15.3 21.1563 15.0245 20.8775 14.8321C20.5986 14.6396 20.2698 14.5393 19.9345 14.5445C19.7883 14.5293 19.6405 14.5458 19.5008 14.593C19.361 14.6401 19.2323 14.7168 19.1228 14.8181C19.0133 14.9195 18.9255 15.0433 18.8649 15.1817C18.8043 15.3201 18.7722 15.4701 18.7707 15.622C18.7707 16.3757 19.2228 16.6813 20.2664 17.1504L20.8746 17.4197C22.9415 18.3358 24.1099 19.2691 24.1099 21.3678C24.1099 23.6307 22.3897 24.8707 20.0797 24.8707C19.1796 24.9299 18.2822 24.7187 17.4957 24.2626C16.7092 23.8065 16.0672 23.1249 15.6473 22.3001L17.6218 21.1118ZM9.02974 21.3296C9.4115 22.0298 9.75907 22.622 10.5947 22.622C11.3934 22.622 11.8981 22.2991 11.8981 21.043V12.4964H14.3301V21.0764C14.3301 23.6785 12.8511 24.863 10.6982 24.863C9.93724 24.906 9.18148 24.71 8.53029 24.3008C7.8791 23.8916 7.36297 23.2884 7.04974 22.5704L9.02974 21.3296Z" fill="black"/>
</svg>
