<svg width="26" height="27" viewBox="0 0 26 27" fill="none" xmlns="http://www.w3.org/2000/svg">
<path d="M23.9653 0H1.91062C0.855915 0 0 0.863701 0 1.92726V24.817C0 25.8821 0.855915 26.7469 1.91062 26.7469H23.9653C25.0207 26.7469 25.8824 25.8821 25.8824 24.817V1.92726C25.8824 0.863701 25.0207 0 23.9653 0ZM7.67627 20.8717C7.67627 21.9323 6.81651 22.7921 5.75595 22.7921C4.69538 22.7921 3.83562 21.9323 3.83562 20.8717V11.9485C3.83562 10.888 4.69538 10.0282 5.75595 10.0282C6.81651 10.0282 7.67627 10.888 7.67627 11.9485V20.8717ZM5.75595 8.28299C4.52546 8.28299 3.53078 7.25249 3.53078 5.98201C3.53078 4.71339 4.52546 3.6829 5.75595 3.6829C6.98356 3.6829 7.98075 4.71339 7.98075 5.98201C7.98075 7.25249 6.98356 8.28299 5.75595 8.28299ZM22.054 20.8748C22.054 21.9337 21.1956 22.7921 20.1367 22.7921C19.0778 22.7921 18.2194 21.9336 18.2194 20.8747V16.5853C18.2194 15.1046 18.1913 13.2007 16.2239 13.2007C14.2259 13.2007 13.9215 14.8133 13.9215 16.4779V20.8737C13.9215 21.9334 13.0624 22.7924 12.0028 22.7924C10.9431 22.7924 10.0841 21.9334 10.0841 20.8737V11.8696C10.0841 10.8527 10.9085 10.0282 11.9255 10.0282H12.8954C13.3767 10.0282 13.7669 10.4184 13.7669 10.8997V11.7387C13.7669 11.7566 13.7815 11.7712 13.7995 11.7712C13.8117 11.7712 13.8228 11.7645 13.8284 11.7537C14.3466 10.7559 15.5953 9.70986 17.4523 9.70986C21.3368 9.70986 22.0543 12.3526 22.0543 15.7907L22.054 20.8748Z" fill="black"/>
</svg>
