<svg width="31" height="25" viewBox="0 0 31 25" fill="none" xmlns="http://www.w3.org/2000/svg">
<path d="M29.4118 3.5302H1.17647C0.533333 3.5302 0 2.80107 0 1.92182C0 1.04258 0.533333 0.313446 1.17647 0.313446H29.4118C30.0549 0.313446 30.5882 1.04258 30.5882 1.92182C30.5882 2.80107 30.0549 3.5302 29.4118 3.5302Z" fill="#292D32"/>
<path d="M29.4118 14.2528H1.17647C0.533333 14.2528 0 13.5236 0 12.6444C0 11.7651 0.533333 11.036 1.17647 11.036H29.4118C30.0549 11.036 30.5882 11.7651 30.5882 12.6444C30.5882 13.5236 30.0549 14.2528 29.4118 14.2528Z" fill="#292D32"/>
<path d="M29.4118 24.9752H1.17647C0.533333 24.9752 0 24.2461 0 23.3668C0 22.4876 0.533333 21.7585 1.17647 21.7585H29.4118C30.0549 21.7585 30.5882 22.4876 30.5882 23.3668C30.5882 24.2461 30.0549 24.9752 29.4118 24.9752Z" fill="#292D32"/>
</svg>
