<svg width="27" height="28" viewBox="0 0 27 28" fill="none" xmlns="http://www.w3.org/2000/svg">
<path d="M13.7172 0.505214C7.1542 0.505214 7.56925 3.43782 7.56925 3.43782V6.48505H13.8106V7.4403H5.08362C5.08362 7.4403 0.882355 6.90536 0.882355 13.7879C0.882355 20.6704 4.59185 20.3906 4.59185 20.3906H6.73361V17.18C6.73361 17.18 6.61345 13.3466 10.3387 13.3466H16.5892C16.5892 13.3466 20.076 13.4039 20.076 9.85802V4.03962C20.076 4.03962 20.6047 0.493752 13.7514 0.493752L13.7172 0.505214ZM10.2675 2.54657C10.4894 2.54079 10.7079 2.60313 10.8955 2.72572C11.0831 2.8483 11.2313 3.02562 11.3214 3.23526C11.4115 3.44489 11.4394 3.67742 11.4016 3.90344C11.3638 4.12945 11.2619 4.33881 11.109 4.50502C10.956 4.67123 10.7588 4.78684 10.5423 4.83722C10.3257 4.8876 10.0996 4.87049 9.89248 4.78806C9.68535 4.70563 9.50653 4.56157 9.37863 4.37411C9.25074 4.18664 9.17951 3.9642 9.17395 3.7349V3.7158C9.17395 3.40823 9.29218 3.11327 9.50263 2.89579C9.71308 2.67831 9.99851 2.55613 10.2961 2.55613L10.2675 2.54657Z" fill="url(#paint0_linear_1_92)"/>
<path d="M13.9021 27.0706C20.4651 27.0706 20.0501 24.1284 20.0501 24.1284V21.0908H13.8097V20.1355H22.5634C22.5634 20.1355 26.7647 20.6208 26.7647 13.7784C26.7647 6.93593 23.0552 7.1757 23.0552 7.1757H20.8857V10.3442C20.8857 10.3442 21.0059 14.1776 17.2807 14.1776H11.0273C11.0273 14.1776 7.53781 14.1232 7.53781 17.6691V23.5266C7.53781 23.5266 7.00907 27.0725 13.8623 27.0725H13.8993L13.9021 27.0706ZM17.3518 25.0197C17.13 25.0255 16.9114 24.9631 16.7238 24.8405C16.5362 24.718 16.388 24.5406 16.2979 24.331C16.2078 24.1214 16.1799 23.8888 16.2178 23.6628C16.2556 23.4368 16.3574 23.2275 16.5103 23.0612C16.6633 22.895 16.8605 22.7794 17.0771 22.729C17.2936 22.6787 17.5197 22.6958 17.7268 22.7782C17.934 22.8606 18.1128 23.0047 18.2407 23.1922C18.3686 23.3796 18.4398 23.6021 18.4454 23.8314V23.86C18.4454 24.1676 18.3271 24.4625 18.1167 24.68C17.9062 24.8975 17.6208 25.0197 17.3232 25.0197H17.3518Z" fill="url(#paint1_linear_1_92)"/>
<defs>
<linearGradient id="paint0_linear_1_92" x1="3.44023" y1="3.10625" x2="16.1245" y2="15.3527" gradientUnits="userSpaceOnUse">
<stop stop-color="#387EB8"/>
<stop offset="1" stop-color="#366994"/>
</linearGradient>
<linearGradient id="paint1_linear_1_92" x1="10.7061" y1="11.3554" x2="25.1351" y2="23.5451" gradientUnits="userSpaceOnUse">
<stop stop-color="#FFE052"/>
<stop offset="1" stop-color="#FFC331"/>
</linearGradient>
</defs>
</svg>
