<svg width="27" height="25" viewBox="0 0 27 25" fill="none" xmlns="http://www.w3.org/2000/svg">
<path d="M13.2353 14.9115C14.5116 14.9115 15.5462 13.8423 15.5462 12.5234C15.5462 11.2044 14.5116 10.1352 13.2353 10.1352C11.959 10.1352 10.9244 11.2044 10.9244 12.5234C10.9244 13.8423 11.959 14.9115 13.2353 14.9115Z" fill="#00D8FF"/>
<path d="M13.2353 17.9988C10.4577 18.0683 7.68705 17.6813 5.0269 16.8525C3.79806 16.45 2.65195 15.8158 1.64648 14.9822C1.2628 14.6974 0.943287 14.3302 0.709856 13.9057C0.476426 13.4813 0.334606 13.0097 0.294128 12.5234C0.294128 10.9443 1.97278 9.39684 4.78472 8.38428C7.51598 7.48706 10.3697 7.05222 13.2353 7.09661C16.0627 7.05578 18.8782 7.48276 21.575 8.36135C22.7584 8.75124 23.8657 9.35473 24.8454 10.1438C25.2225 10.4154 25.5372 10.7693 25.7673 11.1805C25.9973 11.5917 26.137 12.0501 26.1765 12.5234C26.1765 14.1645 24.3 15.8276 21.2773 16.8611C18.6687 17.6629 15.9565 18.0466 13.2353 17.9988ZM13.2353 8.23908C10.4937 8.20121 7.7638 8.61459 5.14799 9.4637C2.55976 10.397 1.39967 11.6732 1.39967 12.5205C1.39967 13.407 2.64665 14.8007 5.38463 15.7683C7.92949 16.5572 10.5792 16.9244 13.2353 16.8564C15.8387 16.9045 18.4339 16.5404 20.9307 15.7769C23.7731 14.8035 25.0672 13.4079 25.0672 12.5234C25.0206 12.2198 24.9136 11.9295 24.7529 11.6709C24.5922 11.4123 24.3813 11.1909 24.1336 11.0208C23.2571 10.3207 22.268 9.78585 21.2117 9.44078C18.6318 8.60375 15.9391 8.19807 13.2353 8.23908Z" fill="#00D8FF"/>
<path d="M7.98489 24.4343C7.55367 24.4445 7.12754 24.3364 6.74993 24.121C5.42624 23.332 4.96775 21.0566 5.5233 18.0332C6.13583 15.1399 7.19715 12.3679 8.66615 9.82479C10.0441 7.27343 11.8083 4.96633 13.8916 2.99097C14.8097 2.12619 15.8687 1.43635 17.0197 0.953427C17.436 0.751813 17.8901 0.647301 18.3499 0.647301C18.8096 0.647301 19.2637 0.751813 19.68 0.953427C21.0564 1.77303 21.5121 4.28341 20.8697 7.50546C20.2382 10.2418 19.2045 12.8619 17.8045 15.2745C16.475 17.7957 14.7664 20.0827 12.7426 22.05C11.7912 22.9487 10.6871 23.6577 9.48607 24.1411C9.00523 24.3255 8.4977 24.4246 7.98489 24.4343ZM9.6238 10.3922C8.22255 12.8274 7.20534 15.4777 6.61035 18.2434C6.09918 21.0279 6.59002 22.7025 7.30363 23.1285C8.04313 23.5708 9.83825 23.1514 12.0179 21.1836C13.9499 19.2989 15.5807 17.1097 16.8496 14.6975C18.1908 12.3911 19.1824 9.88607 19.79 7.26951C20.3946 4.23661 19.8723 2.37961 19.1309 1.93829C18.8531 1.82827 18.5562 1.77902 18.259 1.79365C17.9617 1.80828 17.6707 1.88648 17.4042 2.0233C16.3797 2.46018 15.4378 3.08041 14.6219 3.85546C12.6314 5.7476 10.9463 7.95627 9.63027 10.3979L9.6238 10.3922Z" fill="#00D8FF"/>
<path d="M18.483 24.4467C17.2304 24.4467 15.6396 23.6634 13.9831 22.1914C11.8633 20.1981 10.0693 17.8636 8.67078 15.2783C7.2202 12.7702 6.16729 10.0383 5.55196 7.18641C5.2851 5.93169 5.23565 4.638 5.40591 3.36543C5.44527 2.89336 5.58437 2.43595 5.8134 2.02547C6.04243 1.61499 6.35582 1.26144 6.73146 0.989735C8.10599 0.167269 10.4382 1.01266 12.8184 3.19635C14.7971 5.12804 16.4774 7.3619 17.8008 9.82003C19.2505 12.2696 20.3144 14.9416 20.9529 17.7361C21.2312 19.0369 21.2742 20.3797 21.0795 21.6966C21.0332 22.1822 20.8858 22.6518 20.6474 23.0731C20.4091 23.4944 20.0854 23.8574 19.6985 24.1372C19.3271 24.35 18.9075 24.4568 18.483 24.4467ZM9.62751 14.7032C10.9692 17.1739 12.6828 19.4082 14.7041 21.3221C16.7831 23.1705 18.4321 23.5679 19.1411 23.1371C19.8806 22.6929 20.426 20.8799 19.864 17.9463C19.2482 15.2782 18.2277 12.7277 16.8404 10.3894C15.5775 8.0367 13.9737 5.89765 12.0845 4.04652C9.84381 1.99083 8.0265 1.53136 7.28608 1.97459C7.0553 2.1684 6.86592 2.40954 6.72989 2.6828C6.59386 2.95606 6.51413 3.2555 6.49574 3.56221C6.34877 4.69713 6.39665 5.84993 6.63717 6.96766C7.22905 9.69502 8.23886 12.3071 9.62843 14.7052L9.62751 14.7032Z" fill="#00D8FF"/>
</svg>
