<svg width="27" height="27" viewBox="0 0 27 27" fill="none" xmlns="http://www.w3.org/2000/svg">
<path d="M25.4343 0.215767H1.97748C1.30769 0.215767 0.764709 0.776881 0.764709 1.46905V25.7094C0.764709 26.4015 1.30769 26.9626 1.97748 26.9626H25.4343C26.1041 26.9626 26.6471 26.4015 26.6471 25.7094V1.46905C26.6471 0.776881 26.1041 0.215767 25.4343 0.215767Z" fill="#3178C6"/>
<path fill-rule="evenodd" clip-rule="evenodd" d="M15.7811 21.001V23.9317C16.2964 24.1945 16.8455 24.3795 17.4117 24.4809C18.066 24.6057 18.7301 24.6671 19.3954 24.6643C20.0438 24.6675 20.6908 24.6 21.3255 24.4628C21.8953 24.3438 22.439 24.1171 22.9292 23.7941C23.3843 23.4905 23.7594 23.075 24.0209 22.5848C24.4892 21.5696 24.551 20.4046 24.1929 19.3427C24.0417 18.9455 23.8165 18.583 23.5301 18.2756C23.2226 17.9488 22.8734 17.667 22.492 17.4379C22.053 17.1722 21.5968 16.9379 21.1267 16.7367C20.757 16.5782 20.4242 16.4241 20.1284 16.2744C19.8657 16.1444 19.6143 15.9913 19.3769 15.8168C19.191 15.6822 19.0295 15.5147 18.8999 15.322C18.7879 15.1471 18.7296 14.9414 18.7326 14.7317C18.7301 14.5387 18.7822 14.3491 18.8824 14.1862C18.9912 14.0158 19.1363 13.8733 19.3066 13.7698C19.5149 13.6431 19.7415 13.5518 19.9777 13.4994C20.2678 13.4328 20.5643 13.4008 20.8614 13.4039C21.1113 13.4048 21.3609 13.4233 21.6083 13.4593C21.8756 13.4966 22.1399 13.5531 22.3996 13.6284C22.6637 13.704 22.922 13.7998 23.1724 13.915C23.4153 14.0269 23.6477 14.1618 23.8666 14.3181V11.5832C23.4109 11.4051 22.9385 11.277 22.4569 11.2011C21.8754 11.1137 21.2882 11.0725 20.7006 11.0779C20.0583 11.0743 19.4178 11.1497 18.7927 11.3024C18.2277 11.4358 17.6904 11.6729 17.2065 12.0025C16.7569 12.312 16.3857 12.7284 16.124 13.2167C15.8467 13.7589 15.7095 14.366 15.7256 14.9791C15.7052 15.7899 15.9636 16.5819 16.455 17.2144C17.0578 17.9156 17.818 18.4532 18.6688 18.78C19.0571 18.9456 19.4191 19.1077 19.755 19.2662C20.058 19.4056 20.3492 19.5708 20.6257 19.7601C20.8487 19.91 21.0446 20.0991 21.2044 20.3189C21.3449 20.5183 21.4195 20.7591 21.417 21.0057C21.4183 21.1905 21.3723 21.3724 21.2839 21.533C21.1856 21.7056 21.0474 21.8504 20.8818 21.9543C20.6745 22.0849 20.4477 22.1791 20.2107 22.2332C19.9019 22.3046 19.5861 22.3382 19.2697 22.3335C18.6488 22.3324 18.0328 22.2192 17.4496 21.9992C16.8403 21.772 16.2752 21.4339 15.7811 21.001ZM11.0169 13.7048H14.7144V11.2909H4.40488V13.7048H8.08572V24.4551H11.0169V13.7048Z" fill="white"/>
</svg>
